<svg width="40" height="40" viewBox="0 0 40 40" fill="none" xmlns="http://www.w3.org/2000/svg">
<path fill-rule="evenodd" clip-rule="evenodd" d="M20 3.33325C10.7953 3.33325 3.33337 10.7952 3.33337 19.9999C3.33337 29.2047 10.7953 36.6666 20 36.6666C29.2048 36.6666 36.6667 29.2047 36.6667 19.9999C36.6667 10.7952 29.2048 3.33325 20 3.33325ZM20 4.92055C28.3281 4.92055 35.0794 11.6718 35.0794 19.9999C35.0794 28.328 28.3281 35.0793 20 35.0793C11.6719 35.0793 4.92068 28.328 4.92068 19.9999C4.92068 11.6718 11.6719 4.92055 20 4.92055ZM16.0667 27.4069C16.0667 29.3399 17.6337 30.9069 19.5667 30.9069C21.4997 30.9069 23.0667 29.3399 23.0667 27.4069C23.0667 25.4739 21.4997 23.9069 19.5667 23.9069C17.6337 23.9069 16.0667 25.4739 16.0667 27.4069ZM21.4 27.4069C21.4 28.4194 20.5792 29.2402 19.5667 29.2402C18.5542 29.2402 17.7334 28.4194 17.7334 27.4069C17.7334 26.3944 18.5542 25.5736 19.5667 25.5736C20.5792 25.5736 21.4 26.3944 21.4 27.4069ZM16.6717 17.6869V22.5736H22.6284V14.9336V9.99992H16.6717V14.9336V17.6869ZM20.9621 20.9069H18.3317L18.3385 19.3526V13.2666L18.3317 11.6669H20.9621V13.2666V20.9069Z" fill="#2C2A29"/>
</svg>
