<?xml version="1.0" encoding="UTF-8"?>
<svg width="244px" height="24px" viewBox="0 0 244 24" version="1.1" xmlns="http://www.w3.org/2000/svg" xmlns:xlink="http://www.w3.org/1999/xlink">
    <title>LogoDavivienda</title>
    <g id="Nuevo-Login---Passworless-V2" stroke="none" stroke-width="1" fill="none" fill-rule="evenodd">
        <g id="A004-LoginSinRecordacion-Copia-5" transform="translate(-518, -128)">
            <g id="LogoDavivienda" transform="translate(518, 128)">
                <path d="M46.3118076,20.5907052 C50.1222489,21.394581 59.531064,21.1534183 59.7513372,14.9635744 C59.7513372,12.4773013 56.5645267,10.1632873 53.5264721,9.49721873 C49.8075728,8.68185896 47.4274773,8.67037502 43.6570856,9.49721873 C41.3399253,10.3929661 40.6075883,8.10766194 42.7273608,7.33249596 C46.7380506,5.86255159 62.3631488,5.54961421 63.1012072,14.9635744 C62.4518302,24.2569532 48.8091914,23.5908846 45.7368085,22.9764938 C44.5210145,22.7324601 43.5941504,22.172618 43.5941504,20.6165441 L43.5941504,12.8734972 C43.5941504,11.0389377 46.3146682,11.0532927 46.3146682,12.8907231 L46.3118076,20.5907052" id="Fill-1" fill="#DA3336"></path>
                <path d="M75.6625046,9.66947784 C72.62445,9.66947784 67.4980904,18.9829535 65.9933666,22.3219092 C65.0951094,24.3229858 62.2458604,22.8961062 63.1469783,20.8950296 C64.7632691,17.3062982 70.8622639,6.46545846 75.6367583,6.56020097 C80.4083921,6.46545846 86.5073869,17.3062982 88.1236777,20.8950296 C89.0247956,22.8961062 86.1755466,24.3229858 85.2744287,22.3219092 C83.7725656,18.9829535 78.7005592,9.66947784 75.6625046,9.66947784" id="Fill-2" fill="#DA3336"></path>
                <path d="M96.9374689,20.1772833 C99.9783842,20.1772833 105.104744,10.8638076 106.603746,7.52772295 C107.507725,5.52377535 110.354113,6.94778396 109.455856,8.95173156 C107.836704,12.5433339 101.73771,23.3813027 96.9660758,23.2836892 C92.1915813,23.3813027 86.0925866,12.5433339 84.4762958,8.95173156 C83.5751779,6.94778396 86.4244268,5.52377535 87.322684,7.52772295 C88.8274079,10.8638076 93.902275,20.1772833 96.9374689,20.1772833" id="Fill-3" fill="#DA3336"></path>
                <path d="M114.579355,8.16221066 L114.579355,21.7333573 C114.579355,23.7602727 111.526997,23.6827561 111.526997,21.6558407 L111.524136,8.12201687 C111.524136,6.02619774 114.579355,6.0147138 114.579355,8.16221066" id="Fill-4" fill="#DA3336"></path>
                <path d="M129.183186,20.1772833 C132.224101,20.1772833 137.3476,10.8638076 138.849463,7.52772295 C139.753442,5.52377535 142.59983,6.94778396 141.698712,8.95173156 C140.082421,12.5433339 133.983427,23.3813027 129.211793,23.2836892 C124.437298,23.3813027 118.338304,12.5433339 116.722013,8.95173156 C115.820895,6.94778396 118.670144,5.52377535 119.568401,7.52772295 C121.073125,10.8638076 126.145131,20.1772833 129.183186,20.1772833" id="Fill-5" fill="#DA3336"></path>
                <path d="M152.658022,16.3186793 C153.553419,18.2135295 156.105156,19.7609905 158.576793,20.3007357 C162.292832,21.1189664 164.678649,21.1333214 168.44618,20.3007357 C170.697544,19.5686345 171.492816,21.7563251 169.361601,22.4769424 C165.176409,23.8894671 149.834519,24.3947605 148.930541,14.9607034 C149.428301,5.97739099 161.689226,6.2070698 166.366457,6.8243316 C168.65501,7.12291405 168.188717,9.55176745 165.797179,9.05221604 C162.65614,8.63305222 154.151303,8.13637179 152.492102,13.7950834 L161.220072,13.8008254 C162.581762,13.8008254 162.581762,16.3215503 161.220072,16.3215503 L152.658022,16.3186793" id="Fill-6" fill="#DA3336"></path>
                <path d="M201.278339,20.5907052 C205.08878,21.394581 214.497595,21.1534183 214.717868,14.9635744 C214.717868,12.4773013 211.531058,10.1632873 208.495864,9.49721873 C204.776965,8.68185896 202.391148,8.67037502 198.623617,9.49721873 C196.303596,10.3929661 195.574119,8.10766194 197.691031,7.33249596 C201.704582,5.86255159 217.326819,5.54961421 218.067738,14.9635744 C217.418361,24.2569532 203.775722,23.5908846 200.70334,22.9764938 C199.487546,22.7324601 198.560681,22.172618 198.560681,20.6165441 L198.560681,12.8734972 C198.560681,11.0389377 201.281199,11.0532927 201.281199,12.8907231 L201.278339,20.5907052" id="Fill-7" fill="#DA3336"></path>
                <path d="M230.634757,9.66947784 C227.596702,9.66947784 222.470343,18.9829535 220.96848,22.3219092 C220.067362,24.3229858 217.218113,22.8961062 218.119231,20.8950296 C219.735522,17.3062982 225.837377,6.46545846 230.609011,6.56020097 C235.380645,6.46545846 241.4825,17.3062982 243.098791,20.8950296 C243.999909,22.8961062 241.15066,24.3229858 240.249542,22.3219092 C238.747679,18.9829535 233.672812,9.66947784 230.634757,9.66947784" id="Fill-8" fill="#DA3336"></path>
                <path d="M146.81649,8.16221066 L146.81649,21.7333573 C146.81649,23.7602727 143.764132,23.6827561 143.764132,21.6558407 L143.761271,8.12201687 C143.761271,6.02619774 146.81649,6.0147138 146.81649,8.16221066" id="Fill-9" fill="#DA3336"></path>
                <path d="M183.544911,17.6910102 C181.656854,14.2199892 179.574271,9.62067109 178.141064,9.52018661 C174.625274,9.50583169 176.215818,16.4851965 176.150023,21.9257133 C176.127137,23.8464023 173.097664,23.8435313 173.097664,21.7161313 C173.094804,14.7769603 171.615826,6.50278127 178.215442,6.50278127 C180.15213,6.50278127 181.980112,9.40534721 183.627871,12.138525 C185.515927,15.609546 187.764431,20.2174771 189.197637,20.3179616 C192.713428,20.3351875 191.039923,13.490759 191.102858,8.05024224 C191.125744,6.13242419 194.158077,6.13529517 194.158077,8.26269514 C194.160938,15.1989952 195.722875,23.3382379 189.123259,23.3382379 C187.18371,23.3382379 185.189808,20.427059 183.544911,17.6910102" id="Fill-10" fill="#DA3336"></path>
                <path d="M4.48849465,10.5795801 C4.54570848,11.0848735 4.50279811,13.1950476 2.55752774,16.0947425 C0.540740081,19.2930199 3.72755065,24.6301812 10.1555249,23.2750763 C11.5601246,23.7861116 13.087734,23.8578862 14.0718119,23.8492733 C15.0587505,23.8578862 16.6006634,23.7947246 18.0081237,23.2894312 C24.4332373,24.6445362 27.6057444,19.2930199 25.5889568,16.0947425 C23.6436864,13.1950476 23.600776,11.0848735 23.6551292,10.5795801 L4.48849465,10.5795801" id="Fill-11" fill="#DB343D"></path>
                <path d="M14.0718119,23.8176924 C7.79259358,23.6597883 6.65117759,20.7572223 8.38761746,20.1514445 C9.39458095,19.7983133 10.7219419,19.2040194 10.7219419,19.2040194 C10.05254,15.9310964 11.1596277,11.753813 14.0889761,11.7595491 C17.0211851,11.753813 18.0882231,16.0660327 17.4245426,19.275794 C17.4274033,19.275794 18.766207,19.7609905 19.7560063,20.1514445 C21.3894613,20.7945451 20.3510302,23.6597883 14.0718119,23.8176924" id="Fill-12" fill="#2075A9"></path>
                <path d="M11.7060199,21.5065494 C10.05254,16.9014893 11.5029107,12.4686883 14.0718119,12.4772887 C16.5234247,12.4916562 18.1826259,16.7435851 16.4547681,21.5295173 C16.4547681,21.5295173 15.639471,21.3400323 13.9888518,21.3400323 C12.7616151,21.3400323 11.7060199,21.5065494 11.7060199,21.5065494" id="Fill-13" fill="#F9D93A"></path>
                <path d="M14.0718119,23.8664992 C16.6035241,23.8664992 18.5917048,23.323883 18.5917048,22.5659429 C18.5917048,21.8080029 16.6035241,21.2625157 14.0718119,21.2625157 C11.5400997,21.2625157 9.55191899,21.8080029 9.55191899,22.5659429 C9.55191899,23.323883 11.5400997,23.8664992 14.0718119,23.8664992" id="Fill-14" fill="#E89133"></path>
                <path d="M5.71287071,12.8907231 L8.75092531,12.8907231 C9.23152152,12.8907231 9.62057559,13.2811771 9.62057559,13.7635026 L9.62057559,15.8191279 C9.62057559,16.3014534 9.23152152,16.6947784 8.75092531,16.6947784 L5.71287071,16.6947784 C5.2322745,16.6947784 4.84322042,16.3014534 4.84322042,15.8191279 L4.84322042,13.7635026 C4.84322042,13.2811771 5.2322745,12.8907231 5.71287071,12.8907231" id="Fill-15" fill="#2075A9"></path>
                <path d="M5.71287071,12.8907231 L8.75092531,12.8907231 C9.23152152,12.8907231 9.62057559,13.2811771 9.62057559,13.7635026 L9.62057559,15.8191279 C9.62057559,16.3014534 9.23152152,16.6947784 8.75092531,16.6947784 L5.71287071,16.6947784 C5.2322745,16.6947784 4.84322042,16.3014534 4.84322042,15.8191279 L4.84322042,13.7635026 C4.84322042,13.2811771 5.2322745,12.8907231 5.71287071,12.8907231 Z" id="Stroke-16" stroke="#0F1013" stroke-width="0.091"></path>
                <path d="M5.40677669,14.0419882 C5.40677669,13.677373 5.69856725,13.3845326 6.06187509,13.3845326 L8.46771683,13.3845326 C8.83102468,13.3845326 9.12567592,13.677373 9.12567592,14.0419882 L9.12567592,15.5435134 C9.12567592,15.9052575 8.83102468,16.198098 8.46771683,16.198098 L6.06187509,16.198098 C5.69856725,16.198098 5.40677669,15.9052575 5.40677669,15.5435134 L5.40677669,14.0419882" id="Fill-17" fill="#0F1013"></path>
                <path d="M9.12567592,15.1645433 C8.03861307,15.0554459 7.66100176,13.7807285 7.56659894,13.3816616 L8.46771683,13.3816616 C8.83102468,13.3816616 9.12567592,13.677373 9.12567592,14.0391172 L9.12567592,15.1645433" id="Fill-18" fill="#F9D93A"></path>
                <path d="M6.97443575,13.3816616 C6.90577915,13.7462767 6.56249615,15.1128656 5.40677669,15.1731563 L5.40677669,14.0419882 C5.40677669,13.677373 5.69856725,13.3816616 6.06187509,13.3816616 L6.97443575,13.3816616" id="Fill-19" fill="#F9D93A"></path>
                <path d="M19.3955592,12.8907231 L22.4307531,12.8907231 C22.9113493,12.8907231 23.3004034,13.2811771 23.3004034,13.7635026 L23.3004034,15.8191279 C23.3004034,16.3014534 22.9113493,16.6947784 22.4307531,16.6947784 L19.3955592,16.6947784 C18.9121023,16.6947784 18.5230482,16.3014534 18.5230482,15.8191279 L18.5230482,13.7635026 C18.5230482,13.2811771 18.9121023,12.8907231 19.3955592,12.8907231" id="Fill-20" fill="#2075A9"></path>
                <path d="M19.3955592,12.8907231 L22.4307531,12.8907231 C22.9113493,12.8907231 23.3004034,13.2811771 23.3004034,13.7635026 L23.3004034,15.8191279 C23.3004034,16.3014534 22.9113493,16.6947784 22.4307531,16.6947784 L19.3955592,16.6947784 C18.9121023,16.6947784 18.5230482,16.3014534 18.5230482,15.8191279 L18.5230482,13.7635026 C18.5230482,13.2811771 18.9121023,12.8907231 19.3955592,12.8907231 Z" id="Stroke-21" stroke="#0F1013" stroke-width="0.091"></path>
                <path d="M19.0866045,14.0419882 C19.0866045,13.677373 19.378395,13.3845326 19.7417029,13.3845326 L22.1475446,13.3845326 C22.5079918,13.3845326 22.8055037,13.677373 22.8055037,14.0419882 L22.8055037,15.5435134 C22.8055037,15.9052575 22.5079918,16.198098 22.1475446,16.198098 L19.7417029,16.198098 C19.378395,16.198098 19.0866045,15.9052575 19.0866045,15.5435134 L19.0866045,14.0419882" id="Fill-22" fill="#0F1013"></path>
                <path d="M22.8055037,15.1645433 C21.7184409,15.0554459 21.3408296,13.7807285 21.2492874,13.3816616 L22.1475446,13.3816616 C22.5079918,13.3816616 22.8055037,13.677373 22.8055037,14.0391172 L22.8055037,15.1645433" id="Fill-23" fill="#F9D93A"></path>
                <path d="M20.6542635,13.3816616 C20.5856069,13.7462767 20.2423239,15.1128656 19.0866045,15.1731563 L19.0866045,14.0419882 C19.0866045,13.677373 19.378395,13.3816616 19.7417029,13.3816616 L20.6542635,13.3816616" id="Fill-24" fill="#F9D93A"></path>
                <path d="M20.3596123,2.66714516 C20.0334934,1.57329984 19.9791403,1.02494168 20.974661,1.0220707 L23.1802543,1.0220707 C24.5076153,0.999102817 23.9612232,2.04127041 23.8296313,3.06334111 C23.6608505,4.40983312 23.6608505,4.81751301 23.6608505,4.81751301 C23.6637112,4.81751301 20.362473,2.68437107 20.3596123,2.66714516" id="Fill-25" fill="#D22431"></path>
                <path d="M14.0632298,10.4790956 C10.7905985,10.4819666 6.28500905,10.7633232 3.39571041,10.98726 C1.17581364,11.1595191 -0.540601388,9.46276691 0.935515538,7.85788624 C4.07941573,4.44141396 11.760373,0.126323345 14.0861154,0.126323345 C16.557753,0.126323345 24.0899543,4.44141396 27.2338545,7.85788624 C28.7099714,9.46276691 27.219551,10.98726 24.9939329,10.98726 C22.5079918,10.98726 17.3330005,10.4819666 14.0632298,10.4790956" id="Fill-26" fill="#E89133"></path>
                <path d="M15.833998,18.1388839 C15.833998,17.8948502 16.0256643,17.6967522 16.2602411,17.6967522 C16.4948178,17.6967522 16.6864841,17.8948502 16.6864841,18.1388839 C16.6864841,18.3829176 16.4948178,18.5781446 16.2602411,18.5781446 C16.0256643,18.5781446 15.833998,18.3829176 15.833998,18.1388839" id="Fill-27" fill="#0F1013"></path>
                <path d="M14.0746726,21.196483 C12.7730579,21.196483 11.7146019,21.39171 11.7146019,21.39171 C10.1612463,16.8411986 11.5858708,12.5519469 14.0746726,12.5519469 C16.5663351,12.5519469 17.9880989,16.8498116 16.4347433,21.394581 C16.4347433,21.394581 15.4277798,21.196483 14.0746726,21.196483 M16.3775294,21.5524852 C17.6648407,21.7591961 18.5259089,22.1324242 18.5259089,22.5659429 C18.5259089,23.2233985 16.5348675,23.7602727 14.0775333,23.7602727 C11.6230598,23.7602727 9.62343628,23.2233985 9.62343628,22.5659429 C9.62343628,22.1324242 10.4816438,21.7591961 11.7718158,21.5496142 C11.7718158,21.5496142 13.1735547,21.3802261 14.0746726,21.3802261 C14.9757905,21.3802261 16.3775294,21.5524852 16.3775294,21.5524852 M16.5663351,21.4146779 C18.2026507,16.6947784 16.6149668,12.3567199 14.0746726,12.3653329 C11.5315177,12.3567199 9.94955514,16.6919074 11.5830101,21.4146779 C10.3243058,21.6587116 9.48612308,22.0836174 9.48612308,22.5659429 C9.48612308,22.7209761 9.57194383,22.8673964 9.73214257,23.0080746 C7.6152307,22.0721335 7.41784297,20.5505114 8.57642311,20.1370895 C9.58052591,19.7810874 10.804902,19.3016329 10.804902,19.3016329 C10.1555249,16.1234524 11.156767,11.8600395 14.0746726,11.8600395 C16.9954388,11.8600395 17.9938202,16.1234524 17.3444432,19.3016329 C17.3444432,19.3016329 18.5602372,19.7983133 19.5729221,20.1370895 C20.7114774,20.5189306 20.5426966,22.0491656 18.4343668,22.9937197 C18.5831227,22.8616544 18.6632221,22.7152342 18.6632221,22.5659429 C18.6632221,22.0836174 17.8279001,21.6587116 16.5663351,21.4146779 M20.5140896,2.60685448 C20.2623488,1.61062264 20.2594881,1.19720079 21.1176956,1.1943298 L23.0000308,1.19720079 C24.2558744,1.17423291 23.7409499,2.14749686 23.6265222,3.11214786 C23.5607263,3.7006998 23.5149553,4.16867038 23.4949304,4.5304145 C22.4908276,3.82415216 21.4867248,3.1810515 20.5140896,2.60685448 M18.3227998,23.2434954 C24.3502772,24.2684371 27.2996504,19.1925354 25.3658228,16.1234524 C23.8782631,13.9070519 23.5235373,12.0409115 23.4663235,11.0877445 C19.5157082,10.8781626 16.7951904,10.6858066 14.0746726,10.6484838 C11.3512941,10.6858066 8.63363695,10.8781626 4.680161,11.0877445 C4.62580785,12.0380406 4.27108208,13.9070519 2.78352239,16.1234524 C0.849694786,19.1925354 3.80192864,24.2684371 9.82940609,23.2434954 C7.269087,22.2702315 6.95441091,20.6108021 8.32182155,20.0825408 C9.32020296,19.6978288 10.656146,19.2068904 10.656146,19.2068904 C9.98960482,15.9310964 11.1424636,11.6160057 14.0746726,11.6217477 C17.0068816,11.6160057 18.1626011,15.9310964 17.4931992,19.2068904 C17.4960599,19.2068904 18.8291422,19.6978288 19.8275236,20.0825408 C21.1920736,20.6108021 20.8773975,22.2702315 18.3227998,23.2434954 M14.080394,10.2408039 C10.6876136,10.2896106 7.46361404,10.5279024 3.67319751,10.7748071 C1.31884823,10.9269693 6.93463572e-05,9.35079849 1.48190766,7.72294994 C3.66461544,5.32567737 11.1195781,0.387582989 14.0746726,0.387582989 C17.0297671,0.387582989 24.4847298,5.32567737 26.6674375,7.72294994 C28.1492758,9.35079849 26.830497,10.9269693 24.4761477,10.7748071 C20.6857312,10.5279024 17.4731744,10.2896106 14.080394,10.2408039 M20.0764038,2.35420779 C20.0535183,2.25659429 20.0249114,2.15610982 19.9991651,2.06136731 C19.8361057,1.47281536 19.9791403,0.818230755 20.9918252,0.818230755 L23.1859757,0.818230755 C24.4818691,0.818230755 24.3359738,1.71397811 24.1185612,2.58101561 C23.9612232,3.20114839 23.832492,3.98492733 23.7781389,4.72851247 C23.7781389,4.72851247 25.577514,6.05777858 26.5730347,6.89897721 C29.7197956,9.56038041 27.6686796,11.3001974 24.6706747,11.1509062 C24.3674414,11.1336802 24.0727901,11.1193253 23.7838603,11.1049704 C23.8038851,11.9949758 24.0642081,13.6256953 25.4459222,15.4832227 C28.9302447,19.663377 24.3159489,24.9115378 17.8021539,23.4329804 C16.7293945,23.7947246 15.0187009,23.9583707 14.0746726,23.9583707 C13.1306443,23.9583707 11.4228114,23.7947246 10.3471913,23.4329804 C3.83339625,24.9115378 -0.780899492,19.663377 2.70342302,15.4832227 C4.08513712,13.6256953 4.34546006,11.9921048 4.36548491,11.1049704 L3.47867047,11.1509062 C0.480665555,11.3001974 -1.57045041,9.56038041 1.57631048,6.89897721 C6.24782006,2.9485017 11.8976862,0.0143549255 14.0746726,0 C15.2704417,0.00861295532 17.5218061,0.898618338 20.0764038,2.35420779" id="Fill-28" fill="#0F1013"></path>
            </g>
        </g>
    </g>
</svg>