<svg width="86" height="48" viewBox="0 0 86 48" fill="none" xmlns="http://www.w3.org/2000/svg">
<path d="M37.2481 14.4161C34.6655 14.3411 31.3312 21.1239 30.4467 23.3739C29.9502 24.6286 31.4859 25.5301 31.9808 24.277C32.8019 22.1879 35.6042 16.3598 37.2496 16.3692C38.892 16.3786 41.6014 22.2379 42.4025 24.3364C42.8834 25.5958 44.4284 24.7114 43.9459 23.4504C43.086 21.1926 39.8261 14.3723 37.2465 14.4161M30.3307 19.3239C30.3229 19.2458 30.3106 19.1692 30.2982 19.0926C30.21 18.5989 30.0569 18.152 29.8466 17.7489C29.842 17.7395 29.8358 17.7317 29.8327 17.7239C29.777 17.6208 29.7167 17.5223 29.6549 17.4239C29.6131 17.3583 29.5714 17.2958 29.5281 17.2364C29.4987 17.1958 29.4693 17.1551 29.4384 17.1161C29.3765 17.0348 29.3162 16.9583 29.2559 16.8879C29.1878 16.8114 29.1213 16.7333 29.0502 16.6614C29.0347 16.6458 29.0208 16.6301 29.0053 16.6161C26.2882 13.9036 20.3698 14.1817 18.678 14.902C17.5336 15.3879 17.9295 16.8208 19.1821 16.2614C21.2204 15.7395 23.1859 15.7504 25.1979 16.2614C26.8403 16.677 28.5615 18.1301 28.5615 19.6895C28.444 23.5723 23.3591 23.727 21.2977 23.2223V18.3911C21.2977 17.2379 19.8285 17.2286 19.8285 18.3817V23.2395C19.8285 24.2145 20.3265 24.5692 20.9853 24.7208C22.538 25.0801 29.0517 25.4629 30.2085 20.7864C30.2332 20.6973 30.2487 20.6098 30.2642 20.5223C30.2812 20.4426 30.2967 20.3645 30.309 20.2817C30.3523 19.9645 30.3601 19.6629 30.3369 19.3801C30.3353 19.3629 30.3322 19.3473 30.3307 19.3301M57.6585 15.4645C57.6585 14.1176 55.9837 14.1254 55.9837 15.4426V23.9348C55.9837 25.2083 57.6585 25.2567 57.6585 23.9833V15.4645ZM53.466 14.9739C52.7361 17.0754 50.2292 22.9442 48.7106 22.9598C47.1904 22.9739 44.6 17.1567 43.8283 15.0692C43.3659 13.8176 41.9509 14.727 42.4133 15.9786C43.2422 18.2239 46.3584 24.9958 48.7446 24.9114C51.1293 24.9489 54.1124 18.1161 54.8996 15.8551C55.3372 14.5942 53.9083 13.7129 53.466 14.9739Z" fill="#DD141D"/>
<path d="M30.3367 28.0758H31.1733C31.3759 28.4023 31.4965 28.7305 31.5785 29.1242C32.1043 28.4023 32.9007 27.9258 33.8302 27.9258C35.3535 27.9258 36.5814 29.0289 36.5814 31.468C36.5814 34.207 34.9761 35.3648 32.9672 35.3648C32.5497 35.3648 32.1306 35.3242 31.713 35.2289V38.1305H30.4326V30.3914C30.4326 29.6961 30.4186 28.9742 30.3382 28.0758H30.3367ZM32.9796 34.2742C34.2075 34.2742 35.3256 33.7289 35.3256 31.5633C35.3256 29.7102 34.6251 29.1102 33.5054 29.1102C32.8992 29.1102 32.2512 29.3555 31.7115 29.682V34.1102C32.1569 34.232 32.6023 34.2742 32.9796 34.2742Z" fill="#DD141D"/>
<path d="M37.7675 33.4301V25.0098H39.048V33.2395C39.048 33.9754 39.2367 34.2348 39.7486 34.2348C39.9511 34.2348 40.2202 34.1801 40.545 34.1254V35.2285C40.1398 35.3379 39.7764 35.3785 39.4532 35.3785C38.4557 35.3785 37.7675 34.8879 37.7675 33.4301Z" fill="#DD141D"/>
<path d="M44.889 33.7426C44.5116 34.791 43.6487 35.3645 42.5692 35.3645C41.5841 35.3645 40.7614 34.8191 40.7614 33.6473C40.7614 31.2895 43.6471 31.6441 44.807 30.691C44.7931 29.4098 43.9703 29.1098 43.027 29.1098C42.4208 29.1098 41.7465 29.2598 41.0846 29.4098V28.2785C41.8269 28.0473 42.5275 27.9238 43.1615 27.9238C44.8333 27.9238 46.0071 28.7691 46.0071 30.8535V32.9379C46.0071 33.6051 46.021 34.2457 46.1416 35.2129H45.305C45.1163 34.7629 44.9678 34.3676 44.8874 33.741L44.889 33.7426ZM42.8383 34.316C43.7415 34.316 44.807 33.4848 44.807 32.2176V31.7004C43.6471 32.5176 41.9754 32.2176 41.9754 33.527C41.9754 34.0582 42.3125 34.3176 42.8383 34.3176V34.316Z" fill="#DD141D"/>
<path d="M47.7888 32.598V29.0965H46.5346V28.4418C46.898 28.3059 47.3573 28.1965 47.8568 28.1277V26.0293H49.0708V28.073H51.8359V29.0949H49.0708V32.6105C49.0708 33.809 49.5703 34.1777 50.4054 34.1777C50.8508 34.1777 51.3905 34.0965 51.9828 33.9324V35.0496C51.3086 35.2543 50.7147 35.3637 50.175 35.3637C48.6517 35.3637 47.7872 34.5184 47.7872 32.598H47.7888Z" fill="#DD141D"/>
<path d="M56.3919 33.7426C56.0145 34.791 55.1516 35.3645 54.0721 35.3645C53.087 35.3645 52.2643 34.8191 52.2643 33.6473C52.2643 31.2895 55.15 31.6441 56.3099 30.691C56.296 29.4098 55.4732 29.1098 54.5299 29.1098C53.9237 29.1098 53.2494 29.2598 52.5875 29.4098V28.2785C53.3298 28.0473 54.0304 27.9238 54.6644 27.9238C56.3362 27.9238 57.51 28.7691 57.51 30.8535V32.9379C57.51 33.6051 57.5239 34.2457 57.6445 35.2129H56.8079C56.6192 34.7629 56.4707 34.3676 56.3903 33.741L56.3919 33.7426ZM54.3428 34.316C55.2459 34.316 56.3114 33.4848 56.3114 32.2176V31.7004C55.1516 32.5176 53.4798 32.2176 53.4798 33.527C53.4798 34.0582 53.817 34.3176 54.3428 34.3176V34.316Z" fill="#DD141D"/>
<path d="M44.4142 5.1875C46.2591 5.19687 50.0604 6.58906 54.1153 8.85156C54.1694 8.88281 54.2343 8.83281 54.2204 8.77188C54.1338 8.39844 53.9637 7.46562 54.2823 6.9125C54.5003 6.62812 54.9101 6.48438 55.5009 6.48438H59.0779C59.8032 6.48438 60.2579 6.6125 60.4651 6.87812C60.7806 7.27969 60.5764 8.07344 60.3414 8.99219C60.0723 10.0625 59.8697 11.3219 59.7877 12.4469L59.7785 12.5781L59.8852 12.6562C59.9146 12.6766 62.7941 14.7797 64.3684 16.0984C66.3371 17.7437 67.1614 19.3016 66.6912 20.4859C66.2134 21.6875 64.3901 22.4594 62.0549 22.4594C61.8647 22.4594 61.6698 22.4547 61.4734 22.4438L59.7893 22.3578L59.7955 22.6141C59.8295 23.9578 60.2285 26.6656 62.5266 29.7234C64.6792 32.2766 64.9947 35.2344 63.391 37.8406C61.8708 40.3109 58.5274 42.3922 54.0147 42.3922C52.8997 42.3922 51.712 42.2656 50.464 41.9859L50.3991 41.9719L50.3357 41.9922C48.5294 42.5922 45.7457 42.8156 44.4157 42.8156C42.9883 42.8156 40.2078 42.5609 38.4958 41.9922L38.4324 41.9719L38.3675 41.9859C37.1194 42.2656 35.9333 42.3922 34.8183 42.3922C30.3057 42.3922 26.9606 40.3109 25.4404 37.8406C24.0378 35.5609 24.2342 32.5969 25.7204 30.2781C25.974 29.8812 26.2972 29.4813 26.6281 29.1219C26.7967 28.9391 26.8385 28.6719 26.7287 28.4484L26.724 28.4375C26.5384 28.0609 26.0374 27.9844 25.7544 28.2906C25.6647 28.3875 25.5843 28.4797 25.5286 28.5547C24.3285 29.9875 23.4702 32.0125 23.297 33.6313C23.1192 35.2875 23.5166 36.9594 24.443 38.4656C26.3838 41.6188 30.3598 43.5766 34.8183 43.5766C35.9766 43.5766 37.172 43.4484 38.3752 43.1953C40.3098 43.7797 43.0718 44 44.4157 44C45.7596 44 48.517 43.7844 50.4563 43.1953C51.6594 43.4484 52.8564 43.5766 54.0147 43.5766C58.4732 43.5766 62.4492 41.6172 64.3901 38.4641C65.3164 36.9578 65.7138 35.2875 65.536 33.6313C65.3643 32.0141 64.6406 30.4047 63.4436 28.9766C61.8492 26.8453 61.2631 24.9281 61.0636 23.6094L61.4131 23.6266C61.6265 23.6375 61.843 23.6437 62.0533 23.6437C64.9205 23.6437 67.115 22.6016 67.7815 20.925C68.2594 19.7203 68.1867 17.7453 65.1169 15.1797C63.889 14.1531 61.8956 12.6672 61.0048 12.0094C61.0992 11.0953 61.2677 10.1266 61.4796 9.28281C61.7657 8.1625 62.0626 7.00156 61.3853 6.1375C60.7929 5.38125 59.7846 5.29375 59.0779 5.29375H55.5009C54.5297 5.29375 53.8075 5.59219 53.3544 6.18125L53.3064 6.24375L53.2662 6.3125C53.1549 6.50469 53.0776 6.71094 53.0234 6.92344C49.499 5.12812 46.2468 4.00937 44.4204 4H44.408C42.3234 4.01094 38.6396 5.41563 34.3018 7.85469C34.2646 7.875 30.7495 9.89688 28.6509 11.4C28.3834 11.5922 28.3246 11.9672 28.5195 12.2344C28.7097 12.4969 29.07 12.5547 29.3314 12.3672C31.1701 11.0516 34.2956 9.21719 34.8724 8.89219C38.9814 6.58125 42.5476 5.19687 44.4126 5.1875" fill="#DD141D"/>
</svg>
