<svg width="221" height="50" viewBox="0 0 221 50" fill="none" xmlns="http://www.w3.org/2000/svg">
<g clip-path="url(#clip0_2112_8748)">
<g clip-path="url(#clip1_2112_8748)">
<path d="M19.5839 1.02158C18.3263 1.00703 17.3481 2.59664 17.3947 4.46283C17.4412 6.33485 18.4194 7.78762 19.5868 7.80509C20.7542 7.81383 21.7324 6.35523 21.7732 4.49195C21.8197 2.62866 20.8387 1.03032 19.581 1.02158" fill="#CE0E2D"/>
<path d="M38.0351 19.4998C38.0526 18.2421 36.4602 17.2638 34.5941 17.3133C32.7192 17.357 31.2694 18.3352 31.252 19.5056C31.2461 20.6731 32.6989 21.6484 34.5679 21.692C36.4281 21.7357 38.0264 20.7546 38.0351 19.4998Z" fill="#CE0E2D"/>
<path d="M19.5573 37.9525C20.8121 37.967 21.7902 36.3774 21.7436 34.5112C21.6971 32.6392 20.7218 31.1864 19.5515 31.169C18.3841 31.1631 17.4088 32.6188 17.3622 34.4821C17.3186 36.3454 18.2997 37.9437 19.5573 37.9525Z" fill="#CE0E2D"/>
<path d="M1.10606 19.4741C1.0915 20.7318 2.68394 21.7101 4.54713 21.6635C6.41906 21.6169 7.87176 20.6387 7.88923 19.4683C7.89505 18.3008 6.43944 17.3255 4.57625 17.2819C2.71306 17.2353 1.11479 18.2164 1.10606 19.4712" fill="#CE0E2D"/>
<path d="M31.6888 7.42332C30.8445 6.56446 29.3394 6.75079 28.2681 7.8804C27.1938 9.01584 26.9027 10.6287 27.6829 11.4265C28.4631 12.2184 30.0818 11.9243 31.2142 10.8558C32.3438 9.78444 32.533 8.27344 31.6888 7.42041" fill="#CE0E2D"/>
<path d="M31.6886 31.5643C32.5445 30.7229 32.3611 29.2177 31.2286 28.1463C30.0932 27.0691 28.4804 26.7809 27.6827 27.5612C26.8909 28.3443 27.1849 29.963 28.2562 31.0927C29.3247 32.2252 30.8356 32.4115 31.6886 31.5643Z" fill="#CE0E2D"/>
<path d="M7.5486 31.565C8.38994 32.4209 9.89796 32.2375 10.9664 31.1079C12.0435 29.9725 12.3347 28.3596 11.5545 27.5618C10.7684 26.7699 9.1556 27.0669 8.02313 28.1354C6.89066 29.2068 6.70434 30.7178 7.5486 31.5679" fill="#CE0E2D"/>
<path d="M7.54852 7.42323C6.69262 8.26461 6.87603 9.77271 8.00558 10.8441C9.14096 11.9184 10.7509 12.2124 11.5515 11.4293C12.3462 10.6432 12.0493 9.0274 10.9809 7.89778C9.90953 6.76817 8.3986 6.57893 7.54561 7.42323" fill="#CE0E2D"/>
<path d="M19.6188 11.54C19.0424 11.5371 18.5941 12.1194 18.6144 12.7861C18.6348 13.4586 19.0831 13.9681 19.6188 13.9711C20.1516 13.9711 20.5999 13.4616 20.6232 12.7919C20.6436 12.1252 20.1952 11.54 19.6188 11.54Z" fill="#CE0E2D"/>
<path d="M24.4743 7.76707C23.6533 7.41771 22.6257 8.07568 22.2181 9.14998C21.8076 10.2272 22.1162 11.3015 22.8789 11.6276C23.6446 11.9478 24.6228 11.4005 25.0915 10.3524C25.5602 9.30428 25.2982 8.11061 24.4772 7.76707" fill="#005CB9"/>
<path d="M31.3421 14.6347C31.0073 13.8079 29.8166 13.5459 28.7686 14.0175C27.7176 14.4892 27.1732 15.4645 27.4847 16.2389C27.7991 17.0046 28.8763 17.3103 29.9505 16.8998C31.0219 16.4922 31.6827 15.4616 31.3421 14.6347Z" fill="#005CB9"/>
<path d="M31.345 24.3499C31.6943 23.526 31.0364 22.5012 29.9621 22.0907C28.8821 21.6802 27.8078 21.9888 27.4847 22.7515C27.1644 23.5172 27.7117 24.4955 28.7598 24.9642C29.8078 25.43 31.0014 25.1709 31.345 24.3499Z" fill="#005CB9"/>
<path d="M24.4803 31.2211C25.3071 30.8833 25.5662 29.6926 25.1004 28.6474C24.6287 27.5935 23.6506 27.052 22.8791 27.3606C22.1105 27.675 21.8078 28.7522 22.2153 29.8294C22.6258 30.8979 23.6564 31.5588 24.4803 31.2211Z" fill="#005CB9"/>
<path d="M14.7624 31.2241C15.5863 31.5705 16.6111 30.9155 17.0186 29.8412C17.435 28.761 17.1235 27.6896 16.3578 27.3636C15.5951 27.0433 14.6169 27.5907 14.1482 28.6388C13.6824 29.6898 13.9415 30.8805 14.7624 31.227" fill="#005CB9"/>
<path d="M7.89196 24.3562C8.22966 25.1859 9.41744 25.445 10.4684 24.9734C11.5223 24.5018 12.0638 23.5264 11.7523 22.7549C11.4378 21.9863 10.3607 21.6806 9.28644 22.0911C8.21511 22.5016 7.55426 23.5294 7.89196 24.3562Z" fill="#005CB9"/>
<path d="M7.88905 14.6407C7.54261 15.4647 8.19764 16.4895 9.27188 16.897C10.352 17.3105 11.4233 17.0019 11.7493 16.2391C12.0696 15.4734 11.5223 14.4952 10.4713 14.0264C9.42618 13.5577 8.22966 13.8197 7.88614 14.6407" fill="#005CB9"/>
<path d="M14.7568 7.77038C13.93 8.10519 13.668 9.29594 14.1396 10.344C14.6112 11.398 15.5894 11.9395 16.3579 11.6309C17.1265 11.3164 17.4322 10.2392 17.0217 9.16493C16.6112 8.09354 15.5836 7.43266 14.7568 7.77038Z" fill="#005CB9"/>
<path d="M27.5749 19.4946C27.5778 18.9181 26.9956 18.4698 26.3289 18.4931C25.6535 18.5134 25.1469 18.9618 25.1411 19.4946C25.1411 20.0303 25.6506 20.4757 26.3202 20.4961C26.9868 20.5194 27.572 20.0681 27.572 19.4946" fill="#CE0E2D"/>
<path d="M19.6185 27.4505C20.195 27.4534 20.6433 26.8711 20.6229 26.2044C20.6025 25.5319 20.1542 25.0224 19.6185 25.0166C19.0858 25.0166 18.6375 25.529 18.6171 26.1957C18.5938 26.8624 19.0421 27.4476 19.6185 27.4505Z" fill="#CE0E2D"/>
<path d="M11.6621 19.4944C11.6592 20.0708 12.2415 20.5192 12.9081 20.4959C13.5806 20.4784 14.0901 20.0272 14.093 19.4944C14.0959 18.9616 13.5835 18.5132 12.9169 18.4929C12.2502 18.4725 11.665 18.9208 11.6621 19.4944Z" fill="#CE0E2D"/>
<path d="M13.9943 13.8693C13.5809 14.274 13.677 15.0018 14.1661 15.4589C14.6581 15.9189 15.3306 15.9626 15.712 15.587C16.0933 15.2115 16.0467 14.5331 15.5897 14.044C15.1297 13.5578 14.4019 13.4617 13.9943 13.8664" fill="#CE0E2D"/>
<path d="M25.2432 13.8692C24.8414 13.4587 24.1107 13.5547 23.6536 14.0409C23.1937 14.53 23.15 15.2055 23.5226 15.5898C23.8982 15.9683 24.5736 15.9217 25.0656 15.4646C25.5518 15.0075 25.6478 14.2768 25.2402 13.8692" fill="#CE0E2D"/>
<path d="M25.2429 25.1187C25.6534 24.714 25.5573 23.9862 25.0711 23.5262C24.5791 23.0662 23.9066 23.0225 23.5252 23.3981C23.1439 23.7737 23.1934 24.452 23.6504 24.9411C24.1075 25.4273 24.8382 25.5234 25.2458 25.1187" fill="#CE0E2D"/>
<path d="M13.9942 25.1221C14.3989 25.5327 15.1267 25.4366 15.5838 24.9504C16.0437 24.4613 16.0874 23.7858 15.7119 23.4044C15.3363 23.026 14.658 23.0696 14.1689 23.5296C13.6827 23.9867 13.5867 24.7175 13.9942 25.1251" fill="#CE0E2D"/>
<path d="M27.6592 0.0665118C26.9925 -0.215892 26.1075 0.444991 25.7174 1.46106C25.3273 2.48296 25.5311 3.467 26.1541 3.73194C26.7771 3.99396 27.6155 3.43789 28.0522 2.4422C28.4889 1.4465 28.3288 0.348915 27.6592 0.0694232" fill="#005CB9"/>
<path d="M39.0452 11.4441C38.7716 10.7716 37.6798 10.6144 36.6871 11.0569C35.6857 11.5024 35.1383 12.3438 35.3916 12.9697C35.642 13.5927 36.6318 13.7936 37.6449 13.4006C38.658 13.0046 39.3189 12.1138 39.0452 11.4441Z" fill="#005CB9"/>
<path d="M39.0482 27.5356C39.3306 26.8689 38.6727 25.9839 37.6566 25.5937C36.6319 25.2007 35.6479 25.4074 35.3859 26.0304C35.1239 26.6506 35.6799 27.4919 36.6756 27.9316C37.6712 28.3683 38.7687 28.2052 39.0511 27.5356" fill="#005CB9"/>
<path d="M27.671 38.9221C28.3435 38.6514 28.5007 37.5596 28.0582 36.5639C27.6128 35.5653 26.7715 35.018 26.1455 35.2684C25.5196 35.5246 25.3217 36.5086 25.7147 37.5247C26.1106 38.5378 27.0014 39.1987 27.671 38.925" fill="#005CB9"/>
<path d="M11.5778 38.9251C12.2473 39.2104 13.1294 38.5495 13.5166 37.5335C13.9097 36.5116 13.703 35.5275 13.0829 35.2626C12.4599 35.0035 11.6243 35.5596 11.1847 36.5523C10.7481 37.548 10.9111 38.6456 11.5778 38.9251Z" fill="#005CB9"/>
<path d="M0.195073 27.5471C0.465818 28.2196 1.55753 28.3797 2.55317 27.9343C3.55172 27.4917 4.09904 26.6474 3.84867 26.0186C3.59539 25.3956 2.60849 25.1947 1.59538 25.5906C0.582267 25.9866 -0.0785831 26.8745 0.197984 27.5471" fill="#005CB9"/>
<path d="M0.192008 11.4528C-0.0903815 12.1195 0.570469 13.0046 1.58358 13.3947C2.60542 13.7877 3.58942 13.581 3.85434 12.958C4.11635 12.3349 3.56031 11.4965 2.56466 11.0598C1.56902 10.623 0.471487 10.7861 0.192008 11.4528Z" fill="#005CB9"/>
<path d="M11.5689 0.0688882C10.8935 0.339646 10.7363 1.43141 11.1788 2.4271C11.6242 3.42571 12.4656 3.97305 13.0915 3.72267C13.7174 3.46647 13.9183 2.48242 13.5195 1.46635C13.1264 0.45319 12.2385 -0.207693 11.566 0.0659768" fill="#005CB9"/>
<path d="M47.6118 17.5694C48.1008 17.6073 48.5557 17.6276 48.9679 17.6276C49.6332 17.6276 50.27 17.5665 50.8585 17.4413C51.4555 17.3132 51.9843 17.1036 52.4249 16.8183C52.8741 16.5271 53.238 16.137 53.4996 15.6625C53.764 15.1879 53.8976 14.6057 53.8976 13.9332C53.8976 13.38 53.8095 12.8996 53.6446 12.5066C53.4797 12.1136 53.2608 11.7846 52.9964 11.5226C52.7291 11.2635 52.4306 11.0626 52.1037 10.9228C51.99 10.8733 51.8734 10.8297 51.7625 10.7947C51.8137 10.7656 51.8649 10.7336 51.916 10.7016C52.1605 10.5415 52.3766 10.3377 52.5614 10.0931C52.7462 9.85147 52.8969 9.56907 53.0077 9.26047C53.1158 8.94895 53.1726 8.60542 53.1726 8.2415C53.1726 7.6505 53.0646 7.13811 52.8485 6.71596C52.6353 6.29673 52.3311 5.95028 51.9445 5.68535C51.5664 5.42333 51.1058 5.23409 50.5742 5.11764C49.6388 4.91385 48.4505 4.92258 47.3702 4.99537C46.8783 5.0303 46.4889 5.07688 46.2131 5.1322L46.0596 5.16422V17.4035L46.2273 17.4268C46.6623 17.4821 47.1228 17.5286 47.6118 17.5694ZM48.0781 10.0989V6.71014C48.1747 6.69849 48.2828 6.69267 48.405 6.68394C48.5983 6.6752 48.803 6.66938 49.0162 6.66938C49.6815 6.66938 50.2103 6.81204 50.5912 7.09735C50.9551 7.3681 51.1342 7.77569 51.1342 8.3434C51.1342 8.91111 50.9637 9.36527 50.6225 9.6535C50.27 9.95045 49.7469 10.0989 49.0646 10.0989H48.0781ZM51.5948 12.9258C51.717 13.1791 51.7824 13.4965 51.7824 13.872C51.7824 14.2476 51.7142 14.5678 51.5834 14.8066C51.447 15.0482 51.2622 15.2403 51.0347 15.383C50.7988 15.5315 50.5173 15.6363 50.2017 15.6945C49.6815 15.7964 49.0816 15.8022 48.4647 15.7731C48.3197 15.7673 48.1918 15.7586 48.0781 15.7469V11.8807H49.2408C49.6161 11.8807 49.9686 11.9156 50.2842 11.9826C50.5912 12.0495 50.8585 12.1602 51.0802 12.3174C51.2991 12.4717 51.464 12.6696 51.592 12.9229" fill="#005CB9"/>
<path d="M56.0245 16.9642C56.3372 17.1971 56.7295 17.3689 57.1787 17.4737C57.6108 17.5756 58.1084 17.628 58.6514 17.628C59.1944 17.628 59.78 17.5785 60.3344 17.4853C60.8859 17.3893 61.3379 17.299 61.7189 17.2088L61.8667 17.1738V11.7005C61.8667 10.5447 61.5625 9.68296 60.9598 9.14437C60.3657 8.61159 59.4986 8.34375 58.3756 8.34375C57.9605 8.34375 57.5227 8.37869 57.0707 8.44565C56.6186 8.51552 56.2007 8.61159 55.8255 8.73387L55.6918 8.77754V8.92019C55.6918 9.4617 55.8056 9.93334 56.0273 10.3264L56.1041 10.4632L56.2519 10.4137C56.5533 10.3205 56.8688 10.239 57.1929 10.1808C57.5085 10.1226 57.8525 10.0935 58.2192 10.0935C58.7878 10.0935 59.2199 10.207 59.5099 10.4341C59.78 10.6466 59.9165 11.0513 59.9165 11.6365V11.7267C59.8113 11.7151 59.6976 11.7063 59.5668 11.6976C59.3422 11.6801 59.0551 11.6714 58.7025 11.6714C58.2278 11.6714 57.7672 11.7325 57.3294 11.8519C56.8859 11.9742 56.4907 12.1605 56.1496 12.4109C55.8027 12.6671 55.527 12.9902 55.3251 13.3716C55.1204 13.7588 55.0181 14.213 55.0181 14.7167C55.0181 15.2203 55.1062 15.6774 55.2796 16.0442C55.4559 16.414 55.7061 16.7226 56.0273 16.9642M56.9996 14.6817C56.9996 14.2276 57.1474 13.9015 57.4431 13.686C57.7587 13.456 58.2363 13.3396 58.8589 13.3396C59.0295 13.3396 59.2342 13.3512 59.473 13.3716C59.6379 13.3862 59.7857 13.4007 59.9108 13.4153V15.7822C59.7516 15.8171 59.5753 15.8463 59.382 15.8666C58.9158 15.9132 58.5121 15.9219 58.0401 15.8725C57.8468 15.8521 57.6791 15.8026 57.5227 15.7123C57.372 15.6279 57.2498 15.5085 57.1474 15.3484C57.0508 15.1941 56.9996 14.967 56.9996 14.6759" fill="#005CB9"/>
<path d="M68.8998 10.6757C69.1159 11.0134 69.2268 11.5579 69.2268 12.2973V17.3951L69.3831 17.4271C69.5082 17.4475 69.6475 17.465 69.7982 17.4766C69.946 17.4882 70.0853 17.4941 70.2104 17.4941C70.3355 17.4941 70.4663 17.4882 70.6255 17.4766C70.7819 17.465 70.924 17.4475 71.0519 17.4271L71.2083 17.3951V11.8519C71.2083 10.7165 70.9666 9.84309 70.4862 9.25209C69.9972 8.64944 69.2381 8.34375 68.2346 8.34375C67.8849 8.34375 67.5551 8.39324 67.2537 8.49223C66.9609 8.59121 66.6937 8.71931 66.4606 8.87944C66.2331 9.03665 66.0341 9.21715 65.855 9.41512C65.8181 9.45588 65.7839 9.49955 65.747 9.54031C65.7413 9.49081 65.7356 9.4355 65.7299 9.38018C65.6958 9.09196 65.6617 8.86488 65.6276 8.69602L65.602 8.56501L65.4712 8.53881C65.349 8.51843 65.2353 8.49805 65.1244 8.48932C64.9083 8.46603 64.6468 8.46603 64.408 8.48932C64.2886 8.50096 64.1663 8.51843 64.0441 8.53881L63.8877 8.56792V17.3893L64.0441 17.4213C64.1663 17.4417 64.3113 17.4591 64.4705 17.4708C64.7832 17.4941 64.9964 17.4941 65.2978 17.4708C65.4513 17.4591 65.5906 17.4417 65.7157 17.4213L65.8721 17.3893V12.9204C65.8721 12.4254 65.9318 12.0004 66.0483 11.6539C66.1621 11.3104 66.3156 11.028 66.5004 10.8184C66.688 10.6117 66.9041 10.4545 67.1429 10.3584C67.3874 10.2565 67.6518 10.2041 67.9304 10.2041C68.3796 10.2041 68.698 10.3584 68.8998 10.6699" fill="#005CB9"/>
<path d="M79.3707 16.2829C79.2997 16.0355 79.2172 15.8259 79.1262 15.6599L79.041 15.5114L78.8903 15.5726C78.6231 15.6774 78.3558 15.7531 78.0943 15.7938C77.8356 15.8346 77.5456 15.8579 77.23 15.8579C76.4681 15.8579 75.8881 15.6366 75.4617 15.1796C75.0352 14.7283 74.8163 13.9946 74.8163 12.9931C74.8163 12.1139 75.0125 11.4006 75.3935 10.8766C75.7687 10.3642 76.3259 10.1109 77.0964 10.1109C77.7503 10.1109 78.3331 10.2012 78.8448 10.3817L79.0068 10.4399L79.0808 10.2798C79.1746 10.0818 79.2457 9.846 79.2968 9.58107C79.3508 9.31613 79.3736 9.09196 79.3736 8.88817V8.75134L79.2485 8.70475C78.9272 8.57957 78.5833 8.48641 78.225 8.42818C77.8725 8.37286 77.4631 8.34375 76.9997 8.34375C76.3089 8.34375 75.6891 8.46603 75.1603 8.70767C74.6287 8.95222 74.1824 9.28411 73.8241 9.70334C73.4659 10.1197 73.1959 10.6175 73.0196 11.1823C72.8405 11.7384 72.7495 12.3497 72.7495 12.999C72.7495 14.4022 73.1219 15.5347 73.8526 16.3674C74.5861 17.2058 75.6834 17.6338 77.1134 17.6338C77.9521 17.6338 78.714 17.4999 79.3679 17.2408L79.4958 17.1884V17.0457C79.4788 16.7895 79.4361 16.5333 79.3707 16.2888" fill="#005CB9"/>
<path d="M87.5755 9.70627C87.2372 9.28704 86.8051 8.95515 86.2962 8.7106C85.7873 8.46896 85.1903 8.34668 84.5194 8.34668C83.8484 8.34668 83.2486 8.46896 82.7425 8.7106C82.2336 8.95515 81.8015 9.28704 81.4632 9.70627C81.1249 10.1226 80.869 10.6204 80.707 11.1852C80.5478 11.7413 80.4653 12.3498 80.4653 12.9961C80.4653 13.6424 80.5478 14.2509 80.707 14.8069C80.8719 15.3688 81.1249 15.8696 81.4632 16.283C81.8015 16.7022 82.2336 17.037 82.7454 17.2728C83.2543 17.5086 83.8484 17.6309 84.5222 17.6309C85.196 17.6309 85.7902 17.5116 86.2991 17.2728C86.808 17.0341 87.2401 16.7022 87.5784 16.283C87.9167 15.8666 88.1726 15.3688 88.3346 14.8069C88.4938 14.2479 88.5763 13.6395 88.5763 12.9961C88.5763 12.3527 88.4938 11.7442 88.3346 11.1852C88.1726 10.6204 87.9167 10.1226 87.5784 9.70627M84.5194 15.9249C83.8371 15.9249 83.3566 15.6861 83.041 15.1883C82.7113 14.673 82.5464 13.9364 82.5464 12.9961C82.5464 12.0557 82.7113 11.3221 83.041 10.8126C83.3538 10.3206 83.8371 10.0818 84.5194 10.0818C85.2017 10.0818 85.685 10.3206 86.0091 10.8126C86.3417 11.3221 86.5094 12.0586 86.5094 12.9961C86.5094 13.9335 86.3417 14.673 86.0091 15.1883C85.685 15.6861 85.2045 15.9249 84.5194 15.9249Z" fill="#005CB9"/>
<path d="M53.8267 31.724L53.7414 31.558L53.5794 31.6337C53.2695 31.7706 52.9369 31.8754 52.5815 31.9511C52.2261 32.0268 51.8253 32.0646 51.3932 32.0646C50.8388 32.0646 50.3327 31.9744 49.8864 31.7939C49.4486 31.6192 49.0676 31.3513 48.7549 31.002C48.4393 30.6497 48.192 30.1926 48.0186 29.6511C47.8395 29.098 47.7542 28.4342 47.7542 27.6743C47.7542 26.1954 48.0698 25.0512 48.6895 24.2739C49.3064 23.4995 50.1565 23.121 51.2794 23.121C51.5438 23.121 51.7798 23.1297 51.9845 23.1443C52.1863 23.1618 52.3711 23.1851 52.536 23.2171C52.7009 23.2491 52.8601 23.284 53.0051 23.3277C53.1529 23.3714 53.3036 23.4209 53.4628 23.4733L53.6334 23.5315L53.7016 23.3597C53.7983 23.1123 53.8864 22.8794 53.9575 22.661C54.0314 22.4339 54.0797 22.1806 54.1053 21.9128L54.1196 21.7614L53.9746 21.709C53.6249 21.5838 53.2297 21.479 52.7691 21.3859C52.3171 21.2956 51.7713 21.249 51.1487 21.249C50.2958 21.249 49.5168 21.4004 48.826 21.7032C48.1351 22.006 47.541 22.4456 47.0577 23.0046C46.58 23.5635 46.2076 24.2477 45.9518 25.0338C45.7016 25.8169 45.5708 26.7049 45.5708 27.6714C45.5708 28.638 45.7016 29.5026 45.9518 30.2654C46.2076 31.0398 46.58 31.7065 47.0605 32.248C47.541 32.7925 48.1408 33.2146 48.8345 33.5057C49.5282 33.7969 50.3157 33.9424 51.1799 33.9424C51.7372 33.9424 52.2659 33.8958 52.7493 33.8056C53.2382 33.7153 53.7187 33.5669 54.1821 33.3631L54.3186 33.3019L54.2958 33.1505C54.2276 32.6906 54.0684 32.2073 53.8239 31.7153" fill="#005CB9"/>
<path d="M58.748 24.6641C58.3357 24.6641 57.8951 24.699 57.4431 24.766C56.9939 24.8329 56.5731 24.9319 56.2007 25.0542L56.0642 25.0979V25.2405C56.0642 25.782 56.1751 26.2536 56.3997 26.6467L56.4765 26.7864L56.6243 26.7369C56.9256 26.6438 57.2412 26.5623 57.5625 26.504C57.878 26.4458 58.2249 26.4167 58.5888 26.4167C59.1574 26.4167 59.5895 26.5302 59.8766 26.7573C60.1496 26.9698 60.286 27.3774 60.286 27.9568V28.047C60.1808 28.0354 60.0643 28.0266 59.9335 28.0179C59.7117 28.0004 59.4246 27.9917 59.0692 27.9917C58.5973 27.9917 58.1339 28.0529 57.6932 28.1722C57.2526 28.2945 56.8574 28.4837 56.5163 28.7312C56.1694 28.9874 55.8937 29.3105 55.689 29.6919C55.4871 30.0791 55.3848 30.5304 55.3848 31.037C55.3848 31.5435 55.4729 31.9948 55.6463 32.3616C55.8226 32.7343 56.0728 33.0429 56.394 33.2845C56.7096 33.5174 57.0991 33.6892 57.5483 33.794C57.9832 33.8988 58.4807 33.9483 59.0237 33.9483C59.5667 33.9483 60.1524 33.9017 60.7039 33.8056C61.2555 33.7096 61.7103 33.6193 62.0856 33.532L62.2363 33.497V28.0266C62.2363 26.8679 61.9321 26.0062 61.3294 25.4705C60.7352 24.9377 59.8624 24.667 58.7451 24.667M60.286 29.7385V32.1054C60.1268 32.1404 59.9477 32.1695 59.7572 32.1899C59.291 32.2393 58.8873 32.2481 58.4154 32.1986C58.2249 32.1782 58.0515 32.1258 57.8951 32.0356C57.7444 31.954 57.6222 31.8347 57.5227 31.6716C57.426 31.5202 57.3748 31.2932 57.3748 31.002C57.3748 30.5479 57.5198 30.2218 57.8183 30.0034C58.1339 29.7734 58.6115 29.657 59.2341 29.657C59.4019 29.657 59.6065 29.6686 59.8454 29.689C60.0131 29.7036 60.1609 29.7181 60.286 29.7327" fill="#005CB9"/>
<path d="M63.7515 25.0108C63.7288 25.1068 63.7089 25.2175 63.6975 25.3485C63.6861 25.4708 63.6804 25.5901 63.6804 25.7066C63.6804 25.823 63.6861 25.9424 63.6975 26.0647C63.7089 26.1928 63.7288 26.3034 63.7515 26.4024L63.7913 26.5509H64.7949V33.9194C64.7949 34.2164 64.7579 34.4522 64.684 34.6123C64.6101 34.7666 64.5248 34.8831 64.4225 34.9559C64.3173 35.0345 64.2064 35.0781 64.087 35.0956C63.5952 35.1655 63.1659 35.1189 62.8332 35.0054L62.6655 34.9471L62.5973 35.1131C62.5177 35.3023 62.4523 35.5178 62.404 35.7507C62.3613 35.9807 62.3329 36.2077 62.3215 36.4232L62.313 36.5717L62.4523 36.6212C62.8702 36.7696 63.3876 36.8482 63.9846 36.8482C64.3684 36.8482 64.7267 36.8017 65.0564 36.7056C65.3947 36.6124 65.6933 36.4494 65.9491 36.2281C66.2021 36.004 66.404 35.7041 66.5433 35.346C66.6798 34.9937 66.748 34.5512 66.748 34.0301V24.8594H63.7913L63.7515 25.0079V25.0108Z" fill="#005CB9"/>
<path d="M64.4311 23.3451L64.5732 23.3684C64.7154 23.3917 64.8717 23.4092 65.0338 23.4295C65.2044 23.447 65.3494 23.4557 65.4744 23.4557C65.5995 23.4557 65.7445 23.447 65.9066 23.4295C66.0658 23.4121 66.2136 23.3917 66.3501 23.3684L66.4894 23.3451L66.5093 23.2025C66.532 23.0452 66.5491 22.8939 66.5605 22.7512C66.569 22.6085 66.5747 22.4717 66.5747 22.3465C66.5747 22.2213 66.5661 22.0845 66.5605 21.9419C66.5491 21.7992 66.532 21.6536 66.5093 21.5052L66.4894 21.3625L66.3529 21.3392C66.2193 21.3159 66.0743 21.2984 65.9094 21.281C65.5825 21.249 65.3778 21.246 65.0366 21.281C64.8717 21.2984 64.7182 21.3188 64.5761 21.3392L64.4368 21.3596L64.4169 21.5022C64.3913 21.6507 64.3771 21.7963 64.3657 21.9389C64.3543 22.0816 64.3486 22.2155 64.3486 22.3436C64.3486 22.4717 64.3543 22.6056 64.3657 22.7483C64.3771 22.8909 64.3884 23.0394 64.414 23.1996L64.4339 23.3422L64.4311 23.3451Z" fill="#005CB9"/>
<path d="M71.794 24.6641C71.376 24.6641 70.9382 24.699 70.489 24.766C70.0399 24.8329 69.6219 24.9319 69.2438 25.0542L69.1131 25.0979V25.2405C69.1131 25.782 69.2239 26.2536 69.4457 26.6467L69.5224 26.7864L69.6703 26.7369C69.9688 26.6438 70.2872 26.5623 70.6056 26.504C70.9212 26.4458 71.2709 26.4167 71.6319 26.4167C72.2005 26.4167 72.6355 26.5302 72.9226 26.7573C73.1927 26.9698 73.332 27.3774 73.332 27.9568V28.047C73.2268 28.0354 73.1074 28.0266 72.9823 28.0179C72.7577 28.0004 72.4706 27.9917 72.1181 27.9917C71.6404 27.9917 71.1799 28.0529 70.7421 28.1722C70.3014 28.2945 69.9062 28.4837 69.5651 28.7312C69.2182 28.9874 68.9396 29.3105 68.7406 29.6919C68.5359 30.0791 68.4336 30.5304 68.4336 31.037C68.4336 31.5435 68.5217 31.9948 68.6951 32.3616C68.8714 32.7343 69.1216 33.0429 69.4457 33.2845C69.7613 33.5174 70.1479 33.6892 70.5971 33.794C71.0321 33.8988 71.5296 33.9483 72.0726 33.9483C72.6156 33.9483 73.2012 33.9017 73.7528 33.8056C74.3043 33.7096 74.7592 33.6193 75.1373 33.532L75.2851 33.497V28.0266C75.2851 26.8679 74.9809 26.0062 74.3782 25.4705C73.784 24.9377 72.9141 24.667 71.794 24.667M73.332 29.7385V32.1054C73.1728 32.1404 72.9965 32.1695 72.8032 32.1899C72.337 32.2393 71.9333 32.2481 71.4613 32.1986C71.268 32.1782 71.1003 32.1258 70.9411 32.0356C70.7876 31.954 70.6682 31.8347 70.5686 31.6716C70.4691 31.5202 70.4208 31.2932 70.4208 31.002C70.4208 30.5479 70.5658 30.2218 70.8643 30.0034C71.1799 29.7734 71.6575 29.657 72.2801 29.657C72.4478 29.657 72.6525 29.6686 72.8942 29.689C73.0619 29.7036 73.2069 29.7181 73.332 29.7327" fill="#005CB9"/>
<path d="M87.5529 27.7821C87.3027 27.5084 86.9985 27.2668 86.6516 27.0659C86.3076 26.8679 85.9153 26.6787 85.4803 26.5011L84.5734 26.1372C84.3517 26.047 84.1413 25.9509 83.948 25.8461C83.7575 25.7471 83.5926 25.6277 83.4533 25.5025C83.3225 25.3832 83.2117 25.2434 83.1321 25.0804C83.0553 24.9261 83.0183 24.7485 83.0183 24.5505C83.0183 24.0498 83.1747 23.6859 83.4903 23.4413C83.8201 23.188 84.3091 23.0599 84.9402 23.0599C85.4093 23.0599 85.83 23.1036 86.1996 23.188C86.5806 23.2725 86.9075 23.3714 87.1861 23.4792L87.3595 23.5461L87.4335 23.3714C87.6211 22.9027 87.7462 22.4223 87.803 21.9449L87.8229 21.7906L87.6779 21.7353C87.3169 21.6014 86.8933 21.4849 86.4157 21.3946C85.9409 21.3044 85.4349 21.2578 84.9089 21.2578C83.6609 21.2578 82.6744 21.5606 81.9721 22.1545C81.2614 22.7601 80.9004 23.6073 80.9004 24.667C80.9004 25.1066 80.9601 25.4967 81.0738 25.8199C81.1903 26.143 81.3495 26.4342 81.5514 26.6787C81.7504 26.9262 81.992 27.1387 82.2707 27.3105C82.5407 27.4764 82.8364 27.6278 83.1548 27.7617L84.0759 28.1431C84.4398 28.2974 84.7582 28.4401 85.0312 28.5682C85.287 28.6934 85.5059 28.8302 85.6737 28.9787C85.83 29.1184 85.9551 29.2844 86.0319 29.4765C86.1115 29.6716 86.1541 29.9132 86.1541 30.1927C86.1541 30.7662 85.9636 31.2058 85.5685 31.5406C85.1705 31.8754 84.5479 32.0472 83.712 32.0472C83.1719 32.0472 82.7085 32.0006 82.336 31.9046C81.9551 31.8056 81.5883 31.6891 81.2415 31.561L81.0567 31.4941L80.9942 31.6804C80.9032 31.9278 80.8236 32.1782 80.7497 32.4373C80.6701 32.6993 80.6189 32.9643 80.5962 33.2205L80.5791 33.3777L80.7241 33.4272C80.9544 33.5058 81.1761 33.5757 81.3922 33.6455C81.6168 33.7125 81.8499 33.7707 82.0859 33.8144C82.3275 33.861 82.5862 33.8959 82.8563 33.9192C83.1292 33.9396 83.4391 33.9512 83.7774 33.9512C85.1989 33.9512 86.3219 33.6048 87.1179 32.9206C87.9253 32.2277 88.3375 31.2699 88.3375 30.0791C88.3375 29.5842 88.2693 29.1446 88.1357 28.772C88.0049 28.3964 87.8087 28.0616 87.5557 27.785" fill="#005CB9"/>
<path d="M96.5647 26.0266C96.2236 25.6073 95.7943 25.2725 95.2854 25.0309C94.7793 24.7863 94.1795 24.6641 93.5085 24.6641C92.8376 24.6641 92.2378 24.7863 91.7289 25.0309C91.2228 25.2725 90.7879 25.6073 90.4495 26.0266C90.1112 26.4429 89.8554 26.9407 89.6933 27.5055C89.5341 28.0616 89.4517 28.6701 89.4517 29.3164C89.4517 29.9627 89.5341 30.5712 89.6933 31.1272C89.8582 31.6891 90.1112 32.1869 90.4495 32.6033C90.7907 33.0225 91.2228 33.3544 91.7317 33.5931C92.2406 33.8289 92.8376 33.9483 93.5085 33.9483C94.1795 33.9483 94.7793 33.8289 95.2854 33.5931C95.7943 33.3544 96.2236 33.0225 96.5647 32.6033C96.9059 32.1869 97.1589 31.6891 97.3238 31.1272C97.4858 30.5682 97.5654 29.9598 97.5654 29.3164C97.5654 28.673 97.483 28.0616 97.3238 27.5055C97.1589 26.9407 96.9059 26.4429 96.5647 26.0266ZM93.5085 32.2452C92.8262 32.2452 92.3458 32.0064 92.0302 31.5057C91.7004 30.9933 91.5355 30.2538 91.5355 29.3135C91.5355 28.3731 91.7004 27.6394 92.0302 27.13C92.3429 26.6379 92.8262 26.3992 93.5085 26.3992C94.1909 26.3992 94.677 26.6379 94.9983 27.1329C95.328 27.6424 95.4986 28.376 95.4986 29.3164C95.4986 30.2567 95.328 30.9933 94.9983 31.5086C94.677 32.0064 94.1909 32.2481 93.5085 32.2481" fill="#005CB9"/>
<path d="M105.415 32.6062C105.346 32.3587 105.261 32.1491 105.17 31.9832L105.085 31.8347L104.934 31.8987C104.667 32.0035 104.403 32.0763 104.138 32.12C103.877 32.1608 103.587 32.184 103.271 32.184C102.512 32.184 101.932 31.9628 101.5 31.5086C101.074 31.0603 100.86 30.3237 100.86 29.3222C100.86 28.443 101.054 27.7297 101.437 27.2028C101.813 26.6875 102.37 26.44 103.14 26.44C103.791 26.44 104.377 26.5302 104.889 26.7078L105.054 26.7661L105.128 26.6059C105.221 26.4021 105.292 26.1692 105.346 25.9043C105.398 25.6365 105.423 25.4123 105.423 25.2114V25.0746L105.298 25.0251C104.977 24.8999 104.633 24.8096 104.275 24.7514C103.922 24.6932 103.51 24.667 103.047 24.667C102.356 24.667 101.736 24.7893 101.204 25.0309C100.678 25.2755 100.229 25.6074 99.8709 26.0266C99.5127 26.4429 99.2426 26.9378 99.0635 27.5026C98.8844 28.0616 98.7935 28.673 98.7935 29.3193C98.7935 30.7196 99.163 31.8522 99.8965 32.6877C100.633 33.5262 101.727 33.9512 103.157 33.9512C103.996 33.9512 104.755 33.8173 105.412 33.5582L105.543 33.5058L105.537 33.3631C105.526 33.1069 105.486 32.8507 105.418 32.6062" fill="#005CB9"/>
<path d="M106.447 25.0137C106.421 25.1098 106.404 25.2204 106.393 25.3514C106.382 25.4737 106.373 25.5931 106.373 25.7095C106.373 25.826 106.379 25.9453 106.393 26.0676C106.401 26.1957 106.421 26.3063 106.447 26.4024L106.484 26.5538H107.49V33.7215L107.652 33.7506C107.775 33.7739 107.911 33.7914 108.065 33.803C108.218 33.8147 108.346 33.8205 108.46 33.8205C108.582 33.8205 108.718 33.8147 108.869 33.803C109.026 33.7914 109.162 33.771 109.287 33.7506L109.449 33.7215V24.8652H106.484L106.447 25.0137Z" fill="#005CB9"/>
<path d="M107.141 23.2229L107.161 23.3656L107.3 23.386C107.445 23.4093 107.604 23.4267 107.772 23.4384C107.937 23.45 108.088 23.4558 108.221 23.4558C108.343 23.4558 108.483 23.4471 108.642 23.4384C108.81 23.4267 108.957 23.4093 109.091 23.386L109.23 23.3627L109.25 23.2229C109.273 23.0832 109.287 22.9318 109.293 22.7688C109.301 22.6116 109.304 22.4718 109.304 22.3466C109.304 22.2214 109.301 22.0846 109.293 21.9274C109.287 21.7615 109.273 21.6159 109.25 21.4849L109.228 21.3451L109.088 21.3248C108.955 21.3015 108.804 21.284 108.633 21.2724C108.301 21.2491 108.102 21.2491 107.769 21.2724C107.601 21.284 107.442 21.3015 107.297 21.3248L107.161 21.3451L107.138 21.4849C107.115 21.6159 107.101 21.7615 107.095 21.9274C107.087 22.0846 107.084 22.2244 107.084 22.3466C107.084 22.4689 107.087 22.6116 107.095 22.7688C107.101 22.9318 107.115 23.0832 107.138 23.2229" fill="#005CB9"/>
<path d="M114.185 24.6641C113.77 24.6641 113.329 24.699 112.88 24.766C112.431 24.8329 112.013 24.9319 111.638 25.0542L111.504 25.0979V25.2405C111.504 25.782 111.615 26.2536 111.837 26.6467L111.914 26.7864L112.064 26.7369C112.366 26.6438 112.681 26.5623 113.002 26.504C113.321 26.4458 113.668 26.4167 114.029 26.4167C114.597 26.4167 115.03 26.5302 115.317 26.7573C115.59 26.9698 115.726 27.3774 115.726 27.9568V28.047C115.624 28.0354 115.504 28.0266 115.376 28.0179C115.149 28.0004 114.865 27.9917 114.512 27.9917C114.034 27.9917 113.574 28.0529 113.136 28.1722C112.695 28.2945 112.297 28.4837 111.959 28.7312C111.612 28.9874 111.334 29.3105 111.135 29.6919C110.927 30.0791 110.828 30.5304 110.828 31.037C110.828 31.5435 110.919 31.9948 111.089 32.3616C111.263 32.7343 111.516 33.0429 111.837 33.2845C112.152 33.5174 112.542 33.6892 112.991 33.794C113.426 33.8988 113.921 33.9483 114.464 33.9483C115.007 33.9483 115.595 33.9017 116.147 33.8056C116.698 33.7096 117.15 33.6193 117.531 33.532L117.679 33.497V28.0266C117.679 26.8679 117.372 26.0062 116.772 25.4705C116.178 24.9377 115.305 24.667 114.185 24.667M115.72 29.7385V32.1054C115.561 32.1404 115.385 32.1695 115.189 32.1899C114.725 32.2393 114.319 32.2481 113.847 32.1986C113.656 32.1782 113.486 32.1258 113.329 32.0356C113.179 31.954 113.059 31.8347 112.957 31.6716C112.858 31.5202 112.809 31.2932 112.809 31.002C112.809 30.5479 112.954 30.2218 113.253 30.0034C113.568 29.7734 114.046 29.657 114.671 29.657C114.836 29.657 115.041 29.6686 115.283 29.689C115.45 29.7036 115.595 29.7181 115.72 29.7327" fill="#005CB9"/>
<path d="M122.97 32.2309L122.922 32.0417L122.74 32.0883C122.66 32.1057 122.566 32.1232 122.455 32.132C122.18 32.1552 121.975 32.1523 121.784 32.1087C121.696 32.0883 121.619 32.0475 121.554 31.9806C121.486 31.9107 121.429 31.8001 121.384 31.6545C121.338 31.5002 121.315 31.2731 121.315 30.9849V21.2523L121.156 21.2232C121.031 21.1999 120.895 21.1824 120.738 21.1708C120.437 21.1475 120.218 21.1475 119.917 21.1708C119.763 21.1824 119.624 21.1999 119.499 21.2232L119.342 21.2523V31.3488C119.342 31.8146 119.405 32.2135 119.533 32.5337C119.664 32.8598 119.845 33.1276 120.07 33.3227C120.298 33.5148 120.559 33.6575 120.855 33.7419C121.139 33.8263 121.449 33.8642 121.779 33.8642C121.966 33.8642 122.171 33.8584 122.39 33.838C122.623 33.8205 122.822 33.7798 122.99 33.7186L123.121 33.672V33.5323C123.121 33.0636 123.069 32.624 122.967 32.2222" fill="#005CB9"/>
<path d="M46.3785 43.9599C46.532 44.0181 46.6912 44.0676 46.859 44.1083C47.0267 44.152 47.2314 44.1724 47.4731 44.1724C47.8541 44.1724 48.1384 44.0938 48.3288 43.9337C48.5165 43.7736 48.6103 43.5583 48.6103 43.2876C48.6103 43.1537 48.5904 43.0402 48.5506 42.9441C48.5108 42.8481 48.4511 42.7666 48.3715 42.6968C48.2919 42.6269 48.1924 42.5658 48.0758 42.5076C47.9564 42.4494 47.8199 42.3883 47.6607 42.3213L47.2627 42.1583C47.1291 42.1001 47.004 42.039 46.8931 41.9691C46.7822 41.8993 46.6856 41.8149 46.6031 41.7159C46.5207 41.617 46.4581 41.5006 46.4098 41.3696C46.3643 41.2386 46.3387 41.0815 46.3387 40.901C46.3387 40.4673 46.4837 40.1297 46.7708 39.8823C47.058 39.6379 47.4646 39.5156 47.9848 39.5156C48.2094 39.5156 48.4198 39.536 48.6188 39.5738C48.8179 39.6117 48.997 39.6611 49.1505 39.7164C49.1277 39.9173 49.0766 40.1152 48.997 40.3102C48.8719 40.2636 48.7269 40.22 48.562 40.1821C48.3971 40.1443 48.2094 40.1239 47.9991 40.1239C47.7062 40.1239 47.4816 40.185 47.3224 40.3073C47.1632 40.4295 47.0864 40.61 47.0864 40.8544C47.0864 40.9534 47.1063 41.0436 47.1461 41.1222C47.1859 41.2008 47.2371 41.2706 47.3025 41.3288C47.3679 41.39 47.4447 41.4424 47.5328 41.4889C47.6209 41.5355 47.7147 41.5791 47.8114 41.617L48.2009 41.7741C48.3857 41.8498 48.5535 41.9313 48.6956 42.0128C48.8406 42.0972 48.9628 42.1933 49.0652 42.3068C49.1676 42.4203 49.2443 42.5512 49.2983 42.7026C49.3524 42.8539 49.3779 43.0344 49.3779 43.2381C49.3779 43.73 49.213 44.1142 48.8832 44.3994C48.5534 44.6817 48.09 44.8243 47.4958 44.8243C47.3508 44.8243 47.2201 44.8185 47.1063 44.8098C46.9898 44.801 46.8817 44.7865 46.7822 44.7661C46.6827 44.7486 46.5861 44.7224 46.4922 44.6962C46.3984 44.6671 46.3046 44.638 46.2051 44.6031C46.2136 44.4983 46.2364 44.3907 46.2676 44.283C46.2989 44.1724 46.3359 44.0676 46.3728 43.9628L46.3785 43.9599Z" fill="#005CB9"/>
<path d="M50.4187 41.0721C50.4699 41.0634 50.5267 41.0546 50.5921 41.0517C50.6575 41.0459 50.7144 41.0459 50.7599 41.0459C50.811 41.0459 50.8679 41.0459 50.9333 41.0517C50.9987 41.0575 51.0555 41.0634 51.1067 41.0721V43.0803C51.1067 43.3102 51.1266 43.4994 51.1693 43.6478C51.2119 43.7992 51.2744 43.9156 51.3569 44.0029C51.4393 44.0873 51.5417 44.1484 51.6639 44.1805C51.7862 44.2125 51.9255 44.2299 52.0819 44.2299C52.3178 44.2299 52.5225 44.2037 52.6903 44.1514V41.0721C52.7415 41.0634 52.7983 41.0546 52.8609 41.0517C52.9234 41.0459 52.9803 41.0459 53.0315 41.0459C53.0826 41.0459 53.1395 41.0459 53.202 41.0517C53.2646 41.0575 53.3215 41.0634 53.3726 41.0721V44.6229C53.2106 44.6694 53.0144 44.716 52.7898 44.7596C52.5652 44.8033 52.3292 44.8237 52.0876 44.8237C51.8601 44.8237 51.644 44.8033 51.4422 44.7626C51.2403 44.7218 51.0612 44.6403 50.9077 44.5152C50.7542 44.39 50.6319 44.2183 50.5438 43.9942C50.4556 43.7701 50.4102 43.4761 50.4102 43.1094V41.075L50.4187 41.0721Z" fill="#005CB9"/>
<path d="M56.5312 39.5008C56.5824 39.4921 56.6393 39.4833 56.7018 39.4804C56.7644 39.4746 56.8212 39.4746 56.8724 39.4746C56.9236 39.4746 56.9805 39.4746 57.0458 39.4804C57.1112 39.4863 57.1681 39.4921 57.2193 39.5008V41.5148C57.3017 41.3722 57.4325 41.2471 57.6116 41.1423C57.7879 41.0375 58.0011 40.9851 58.2541 40.9851C58.4674 40.9851 58.6664 41.0201 58.8483 41.0928C59.0303 41.1656 59.1867 41.2762 59.3146 41.4246C59.4454 41.576 59.5449 41.7651 59.6188 41.9951C59.6899 42.225 59.7269 42.4986 59.7269 42.8129C59.7269 43.4416 59.5534 43.9334 59.2066 44.2885C58.8597 44.6436 58.3622 44.8211 57.7111 44.8211C57.5064 44.8211 57.296 44.8008 57.08 44.76C56.8639 44.7193 56.6819 44.6727 56.5312 44.6203V39.4979V39.5008ZM57.2193 44.1459C57.3017 44.175 57.3927 44.1954 57.4894 44.207C57.586 44.2187 57.6827 44.2245 57.785 44.2245C57.9556 44.2245 58.1177 44.1983 58.2627 44.143C58.4105 44.0877 58.5356 44.0062 58.6436 43.8927C58.7517 43.7821 58.8341 43.6395 58.8995 43.4649C58.9621 43.2902 58.9933 43.0836 58.9933 42.8478C58.9933 42.452 58.9251 42.1464 58.7915 41.9252C58.655 41.7069 58.4333 41.5963 58.1205 41.5963C58.0125 41.5963 57.9073 41.6138 57.8021 41.6487C57.6969 41.6837 57.6002 41.7419 57.5121 41.8204C57.424 41.899 57.3529 42.0038 57.2989 42.1348C57.2449 42.2657 57.2193 42.4229 57.2193 42.6092V44.1459Z" fill="#005CB9"/>
<path d="M62.6152 42.3242C62.6152 42.0448 62.547 41.8469 62.4049 41.7392C62.2655 41.6286 62.0637 41.5762 61.7964 41.5762C61.6344 41.5762 61.4809 41.5907 61.3387 41.614C61.1966 41.6402 61.0572 41.6752 60.9236 41.7188C60.8355 41.5616 60.79 41.3725 60.79 41.1542C60.9492 41.1018 61.1226 41.061 61.3131 41.0319C61.5036 41.0028 61.6884 40.9883 61.8647 40.9883C62.3309 40.9883 62.6835 41.096 62.9251 41.3143C63.1668 41.5296 63.289 41.8789 63.289 42.3533V44.6467C63.127 44.6846 62.928 44.7253 62.6948 44.7632C62.4617 44.8039 62.2257 44.8243 61.9841 44.8243C61.7566 44.8243 61.5491 44.8039 61.3671 44.7602C61.1823 44.7166 61.0288 44.6496 60.9009 44.5536C60.7729 44.4576 60.6734 44.3382 60.6052 44.1898C60.5341 44.0414 60.5 43.8638 60.5 43.6543C60.5 43.4447 60.5398 43.2701 60.6223 43.1158C60.7047 42.9616 60.8156 42.8335 60.9549 42.7287C61.0942 42.6269 61.2563 42.5512 61.4354 42.4988C61.6173 42.4493 61.8078 42.4231 62.0068 42.4231C62.1547 42.4231 62.2769 42.426 62.3736 42.4348C62.4702 42.4406 62.5498 42.4493 62.6152 42.461V42.3242ZM62.6152 43.0169C62.547 43.0081 62.456 42.9965 62.3508 42.9878C62.2428 42.979 62.1518 42.9732 62.0779 42.9732C61.7908 42.9732 61.569 43.0285 61.4183 43.1362C61.2676 43.2468 61.1909 43.4127 61.1909 43.6368C61.1909 43.7794 61.2165 43.8929 61.2676 43.9715C61.3188 44.053 61.3842 44.1141 61.461 44.1578C61.5377 44.2014 61.623 44.2276 61.7168 44.2364C61.8107 44.2451 61.8988 44.2509 61.9812 44.2509C62.0893 44.2509 62.1973 44.2451 62.3139 44.2334C62.4276 44.2218 62.53 44.2043 62.6181 44.1811V43.0169H62.6152Z" fill="#005CB9"/>
<path d="M64.4009 41.0726C64.4521 41.0639 64.5032 41.0552 64.5516 41.0523C64.5999 41.0464 64.6511 41.0465 64.7022 41.0465C64.7534 41.0465 64.8018 41.0464 64.8444 41.0523C64.8899 41.0581 64.9354 41.0639 64.9865 41.0726C65.0008 41.1425 65.015 41.2415 65.0292 41.3608C65.0434 41.483 65.0491 41.5849 65.0491 41.6635C65.0946 41.582 65.1543 41.5005 65.2282 41.419C65.2993 41.3375 65.3817 41.2647 65.4756 41.2007C65.5694 41.1367 65.6746 41.0843 65.7968 41.0435C65.9191 41.0028 66.0499 40.9824 66.1949 40.9824C66.6043 40.9824 66.9056 41.1017 67.1018 41.3433C67.298 41.5849 67.3946 41.94 67.3946 42.4115V44.734C67.3434 44.7427 67.2866 44.7515 67.2212 44.7544C67.1558 44.7602 67.0989 44.7602 67.0478 44.7602C66.9966 44.7602 66.9397 44.7602 66.8772 44.7544C66.8146 44.7486 66.7578 44.7427 66.7066 44.734V42.6065C66.7066 42.2688 66.6554 42.0185 66.5531 41.8585C66.4507 41.6984 66.2887 41.6198 66.0641 41.6198C65.9333 41.6198 65.811 41.6431 65.6945 41.6926C65.5779 41.7391 65.4756 41.8148 65.3874 41.9138C65.2993 42.0127 65.2282 42.1437 65.1742 42.3038C65.1202 42.4638 65.0946 42.6559 65.0946 42.88V44.7369C65.0434 44.7456 64.9866 44.7544 64.924 44.7573C64.8615 44.7631 64.8046 44.7631 64.7534 44.7631C64.7022 44.7631 64.6454 44.7631 64.58 44.7573C64.5146 44.7515 64.4577 44.7456 64.4066 44.7369V41.0726H64.4009Z" fill="#005CB9"/>
<path d="M71.1698 44.1024C71.2068 44.1694 71.2409 44.2538 71.2665 44.3527C71.2949 44.4517 71.312 44.5565 71.3148 44.6583C71.0391 44.7689 70.7263 44.8213 70.3738 44.8213C69.7796 44.8213 69.3304 44.6496 69.0262 44.3033C68.7248 43.9569 68.5713 43.4942 68.5713 42.9062C68.5713 42.6356 68.6082 42.3824 68.6822 42.1495C68.7561 41.9167 68.867 41.7129 69.0148 41.5412C69.1626 41.3695 69.3446 41.2356 69.5635 41.1338C69.7824 41.0348 70.0355 40.9824 70.3255 40.9824C70.5216 40.9824 70.6922 40.9941 70.8429 41.0173C70.9907 41.0406 71.1329 41.0785 71.2694 41.1309C71.2694 41.2123 71.258 41.3055 71.2381 41.4132C71.2182 41.5209 71.1869 41.614 71.15 41.6955C70.9225 41.614 70.6609 41.5732 70.3681 41.5732C70.0099 41.5732 69.7426 41.6955 69.5664 41.9371C69.3901 42.1786 69.302 42.5017 69.302 42.9004C69.302 43.3574 69.4015 43.6921 69.6033 43.9045C69.8023 44.117 70.0781 44.2218 70.4278 44.2218C70.5671 44.2218 70.6979 44.213 70.8145 44.1927C70.9339 44.1723 71.0533 44.1403 71.1727 44.0937L71.1698 44.1024Z" fill="#005CB9"/>
<path d="M73.6747 44.8243C73.3961 44.8243 73.1516 44.7748 72.9412 44.6787C72.7308 44.5798 72.5574 44.4459 72.4181 44.2742C72.2788 44.1025 72.1764 43.9016 72.1082 43.6659C72.04 43.4331 72.0059 43.1798 72.0059 42.9092C72.0059 42.6385 72.04 42.3853 72.1082 42.1524C72.1764 41.9196 72.2788 41.7159 72.4181 41.5442C72.5574 41.3724 72.7308 41.2386 72.9412 41.1367C73.1516 41.0377 73.3961 40.9854 73.6747 40.9854C73.9534 40.9854 74.1979 41.0348 74.4082 41.1367C74.6186 41.2357 74.7921 41.3724 74.9314 41.5442C75.0707 41.7159 75.173 41.9167 75.2413 42.1524C75.3095 42.3853 75.3436 42.6385 75.3436 42.9092C75.3436 43.1798 75.3095 43.4331 75.2413 43.6659C75.173 43.8987 75.0707 44.1025 74.9314 44.2742C74.7921 44.4459 74.6186 44.5798 74.4082 44.6787C74.1979 44.7777 73.9534 44.8243 73.6747 44.8243ZM73.6747 44.2596C73.996 44.2596 74.232 44.1403 74.3855 43.9016C74.539 43.663 74.6158 43.3312 74.6158 42.9092C74.6158 42.4872 74.539 42.1554 74.3855 41.9196C74.232 41.6839 73.996 41.5645 73.6747 41.5645C73.3535 41.5645 73.1175 41.6839 72.9668 41.9196C72.8161 42.1554 72.7394 42.4842 72.7394 42.9092C72.7394 43.3341 72.8161 43.663 72.9668 43.9016C73.1175 44.1403 73.3535 44.2596 73.6747 44.2596Z" fill="#005CB9"/>
<path d="M80.2109 42.3242C80.2109 42.0448 80.1399 41.8469 80.0006 41.7392C79.8612 41.6286 79.6594 41.5762 79.3921 41.5762C79.2301 41.5762 79.0766 41.5907 78.9344 41.614C78.7923 41.6402 78.6529 41.6752 78.5193 41.7188C78.4312 41.5616 78.3857 41.3725 78.3857 41.1542C78.5449 41.1018 78.7183 41.061 78.9088 41.0319C79.0993 41.0028 79.2841 40.9883 79.4604 40.9883C79.9266 40.9883 80.2792 41.096 80.5208 41.3143C80.7625 41.5296 80.8847 41.8789 80.8847 42.3533V44.6467C80.7227 44.6846 80.5237 44.7253 80.2905 44.7632C80.0574 44.8039 79.8214 44.8243 79.5798 44.8243C79.3523 44.8243 79.1448 44.8039 78.9628 44.7602C78.778 44.7166 78.6245 44.6496 78.4966 44.5536C78.3686 44.4576 78.2691 44.3382 78.2009 44.1898C78.1298 44.0414 78.0957 43.8638 78.0957 43.6543C78.0957 43.4447 78.1355 43.2701 78.218 43.1158C78.3004 42.9616 78.4084 42.8335 78.5506 42.7287C78.6899 42.6269 78.852 42.5512 79.0311 42.4988C79.213 42.4493 79.4035 42.4231 79.6025 42.4231C79.7504 42.4231 79.8726 42.426 79.9693 42.4348C80.0659 42.4406 80.1456 42.4493 80.2109 42.461V42.3242ZM80.2109 43.0169C80.1399 43.0081 80.0517 42.9965 79.9465 42.9878C79.8385 42.979 79.7475 42.9732 79.6736 42.9732C79.3865 42.9732 79.1647 43.0285 79.014 43.1362C78.8633 43.2468 78.7866 43.4127 78.7866 43.6368C78.7866 43.7794 78.8122 43.8929 78.8633 43.9715C78.9145 44.053 78.9771 44.1141 79.0567 44.1578C79.1334 44.2014 79.2187 44.2276 79.3125 44.2364C79.4064 44.2451 79.4945 44.2509 79.5769 44.2509C79.685 44.2509 79.793 44.2451 79.9096 44.2334C80.0233 44.2218 80.1257 44.2043 80.2138 44.1811V43.0169H80.2109Z" fill="#005CB9"/>
<path d="M82.1387 41.0727C82.1898 41.064 82.241 41.0552 82.2894 41.0523C82.3377 41.0465 82.3889 41.0465 82.44 41.0465C82.4912 41.0465 82.5395 41.0465 82.5822 41.0523C82.6248 41.0581 82.6732 41.064 82.7243 41.0727C82.7386 41.1425 82.7528 41.2386 82.767 41.355C82.7812 41.4714 82.7869 41.5704 82.7869 41.6519C82.8295 41.5675 82.8807 41.4831 82.9433 41.4045C83.0058 41.3259 83.0797 41.256 83.1679 41.1949C83.2532 41.1338 83.3527 41.0843 83.4635 41.0465C83.5744 41.0087 83.6995 40.9883 83.8331 40.9883C84.1118 40.9883 84.3278 41.0465 84.4785 41.1629C84.6292 41.2793 84.7458 41.4423 84.8225 41.6519C84.868 41.5704 84.9249 41.4889 84.9931 41.4103C85.0613 41.3288 85.1353 41.259 85.2206 41.1949C85.303 41.1338 85.3997 41.0843 85.5077 41.0465C85.6157 41.0087 85.7351 40.9883 85.8716 40.9883C86.2867 40.9883 86.5881 41.1076 86.7757 41.3463C86.9634 41.5849 87.0572 41.9371 87.0572 42.4028V44.7399C87.006 44.7486 86.9491 44.7573 86.8837 44.7602C86.8184 44.7661 86.7615 44.7661 86.7103 44.7661C86.6591 44.7661 86.6023 44.7661 86.5397 44.7602C86.4772 44.7544 86.4203 44.7486 86.3692 44.7399V42.6123C86.3692 42.2834 86.3208 42.0361 86.2213 41.8731C86.1247 41.7101 85.9626 41.6257 85.7408 41.6257C85.5049 41.6257 85.3115 41.713 85.1665 41.8905C85.0187 42.0652 84.9476 42.3271 84.9476 42.6676V44.7399C84.8964 44.7486 84.8396 44.7573 84.777 44.7602C84.7145 44.7661 84.6576 44.7661 84.6064 44.7661C84.5553 44.7661 84.4984 44.7661 84.4359 44.7602C84.3733 44.7544 84.3165 44.7486 84.2653 44.7399V42.5599C84.2653 42.2398 84.2198 42.0011 84.126 41.841C84.0321 41.681 83.8843 41.6024 83.6796 41.6024C83.5631 41.6024 83.455 41.6286 83.3527 41.681C83.2503 41.7334 83.1622 41.8119 83.0854 41.9167C83.0087 42.0215 82.9489 42.1525 82.9035 42.3125C82.8608 42.4726 82.8381 42.656 82.8381 42.8655V44.737C82.7869 44.7457 82.73 44.7544 82.6675 44.7573C82.6049 44.7632 82.5481 44.7632 82.4969 44.7632C82.4457 44.7632 82.3889 44.7632 82.3235 44.7573C82.2581 44.7515 82.2012 44.7457 82.15 44.737V41.0727H82.1387Z" fill="#005CB9"/>
<path d="M88.5156 41.6316H88.0608C88.0522 41.5937 88.0437 41.5501 88.0408 41.5006C88.0352 41.4511 88.0352 41.4016 88.0352 41.3551C88.0352 41.3085 88.0352 41.259 88.0408 41.2096C88.0465 41.1601 88.0522 41.1164 88.0608 41.0786H89.1923V44.7429C89.1411 44.7516 89.0842 44.7603 89.0217 44.7632C88.9592 44.769 88.9023 44.769 88.8511 44.769C88.8056 44.769 88.7488 44.769 88.6862 44.7632C88.6237 44.7574 88.5668 44.7516 88.5156 44.7429V41.6345V41.6316ZM88.3621 40.2666C88.3536 40.2084 88.3479 40.1472 88.3451 40.0803C88.3451 40.0134 88.3422 39.9551 88.3422 39.9028C88.3422 39.8504 88.3422 39.7922 88.3451 39.7252C88.3451 39.6583 88.3536 39.6001 88.3621 39.5477C88.4218 39.5389 88.4872 39.5302 88.5583 39.5273C88.6294 39.5215 88.6891 39.5215 88.7402 39.5215C88.7914 39.5215 88.8511 39.5215 88.9222 39.5273C88.9904 39.5331 89.0558 39.5389 89.1098 39.5477C89.1184 39.6001 89.1241 39.6583 89.1269 39.7252C89.1269 39.7922 89.1297 39.8504 89.1297 39.9028C89.1297 39.9551 89.1297 40.0134 89.1269 40.0803C89.1269 40.1472 89.1184 40.2084 89.1098 40.2666C89.053 40.2753 88.9933 40.284 88.925 40.2869C88.8568 40.2928 88.7971 40.2928 88.7459 40.2928C88.6891 40.2928 88.6265 40.2928 88.5583 40.2869C88.4901 40.2811 88.4247 40.2753 88.3621 40.2666Z" fill="#005CB9"/>
<path d="M92.4446 44.2655C92.8596 44.2742 93.1582 44.3644 93.3458 44.5361C93.5306 44.7079 93.6244 44.9436 93.6244 45.2434C93.6244 45.4384 93.5761 45.613 93.4766 45.7673C93.3799 45.9215 93.2435 46.0554 93.0729 46.166C92.9023 46.2766 92.6976 46.3639 92.4616 46.4221C92.2256 46.4803 91.9726 46.5123 91.6968 46.5123C91.2163 46.5123 90.8524 46.4367 90.6023 46.2853C90.3521 46.134 90.2241 45.8924 90.2241 45.5635C90.2241 45.3685 90.2753 45.1939 90.3776 45.0396C90.48 44.8854 90.6136 44.7632 90.7757 44.6729C90.6819 44.6118 90.6051 44.5332 90.5425 44.4401C90.48 44.347 90.4487 44.2335 90.4487 44.0937C90.4487 43.9191 90.4885 43.7649 90.5653 43.6368C90.6421 43.5087 90.7444 43.3952 90.8752 43.2934C90.7217 43.1828 90.5994 43.0431 90.5056 42.8684C90.4118 42.6938 90.3663 42.4988 90.3663 42.2776C90.3663 42.0972 90.4004 41.9284 90.4629 41.7712C90.5283 41.614 90.6222 41.4772 90.7444 41.3608C90.8667 41.2444 91.0202 41.1542 91.2021 41.0872C91.3841 41.0203 91.5916 40.9883 91.8219 40.9883C92.0323 40.9883 92.22 41.0203 92.3905 41.0814C92.5611 41.1425 92.7061 41.2211 92.8255 41.3172C92.9193 41.2415 93.0444 41.1775 93.2037 41.128C93.3629 41.0785 93.5363 41.0523 93.7268 41.0523C93.7467 41.1425 93.7552 41.2415 93.7552 41.3521C93.7552 41.4045 93.7552 41.4598 93.7495 41.5151C93.7438 41.5733 93.7382 41.6286 93.7296 41.6868H93.1013C93.1525 41.7683 93.1923 41.8556 93.2207 41.9516C93.2491 42.0477 93.2634 42.1554 93.2634 42.2805C93.2634 42.4755 93.2292 42.6531 93.1582 42.8102C93.0871 42.9674 92.9904 43.1013 92.8625 43.2148C92.7345 43.3283 92.581 43.4127 92.4048 43.4709C92.2285 43.5291 92.0352 43.5611 91.8248 43.5611C91.6343 43.5611 91.4609 43.5408 91.3073 43.4971C91.2419 43.5349 91.1794 43.5931 91.1168 43.6717C91.0543 43.7503 91.023 43.8347 91.023 43.9249C91.023 44.0093 91.0543 44.085 91.114 44.149C91.1737 44.2131 91.3102 44.248 91.5177 44.2538L92.4446 44.2684V44.2655ZM91.5007 44.8301C91.2903 44.8243 91.1339 44.8825 91.0287 45.0018C90.9235 45.1211 90.8723 45.2638 90.8723 45.4296C90.8723 45.5344 90.8922 45.6217 90.9349 45.6858C90.9775 45.7527 91.0372 45.8051 91.114 45.8458C91.1908 45.8866 91.2817 45.9157 91.3869 45.9332C91.4921 45.9506 91.6058 45.9594 91.7309 45.9594C92.1034 45.9594 92.3934 45.8953 92.6038 45.7702C92.8142 45.645 92.9193 45.4849 92.9193 45.2958C92.9193 45.1532 92.8739 45.0426 92.7857 44.9669C92.6976 44.8912 92.5355 44.8505 92.2967 44.8446L91.5007 44.8301ZM91.8219 43.046C92.0721 43.046 92.2598 42.9732 92.3792 42.8306C92.5014 42.688 92.5611 42.5046 92.5611 42.2805C92.5611 42.0564 92.5014 41.8643 92.3792 41.7188C92.2569 41.5733 92.0721 41.5005 91.8219 41.5005C91.5717 41.5005 91.3869 41.5733 91.2675 41.7188C91.1481 41.8643 91.0884 42.0506 91.0884 42.2805C91.0884 42.5105 91.1481 42.688 91.2675 42.8306C91.3869 42.9732 91.5717 43.046 91.8219 43.046Z" fill="#005CB9"/>
<path d="M95.9731 44.8243C95.6945 44.8243 95.45 44.7748 95.2396 44.6787C95.0292 44.5798 94.8557 44.4459 94.7164 44.2742C94.5771 44.1025 94.4719 43.9016 94.4065 43.6659C94.3383 43.4331 94.3042 43.1798 94.3042 42.9092C94.3042 42.6385 94.3383 42.3853 94.4065 42.1524C94.4748 41.9196 94.5771 41.7159 94.7164 41.5442C94.8557 41.3724 95.0292 41.2386 95.2396 41.1367C95.45 41.0377 95.6945 40.9854 95.9731 40.9854C96.2517 40.9854 96.4962 41.0348 96.7066 41.1367C96.917 41.2357 97.0904 41.3724 97.2297 41.5442C97.369 41.7159 97.4742 41.9167 97.5396 42.1524C97.6078 42.3853 97.6391 42.6385 97.6391 42.9092C97.6391 43.1798 97.605 43.4331 97.5396 43.6659C97.4714 43.8987 97.369 44.1025 97.2297 44.2742C97.0904 44.4459 96.917 44.5798 96.7066 44.6787C96.4962 44.7777 96.2517 44.8243 95.9731 44.8243ZM95.9731 44.2596C96.2943 44.2596 96.5303 44.1403 96.6838 43.9016C96.8374 43.663 96.9141 43.3312 96.9141 42.9092C96.9141 42.4872 96.8374 42.1554 96.6838 41.9196C96.5303 41.6839 96.2943 41.5645 95.9731 41.5645C95.6518 41.5645 95.4158 41.6839 95.2652 41.9196C95.1145 42.1554 95.0377 42.4842 95.0377 42.9092C95.0377 43.3341 95.1145 43.663 95.2652 43.9016C95.4158 44.1403 95.6518 44.2596 95.9731 44.2596Z" fill="#005CB9"/>
<path d="M98.62 44.7367C98.6114 44.6698 98.6029 44.6058 98.5944 44.5388C98.5887 44.4748 98.583 44.4078 98.583 44.3438C98.583 44.2798 98.5859 44.2099 98.5944 44.1401C98.6001 44.0702 98.6086 44.0033 98.62 43.9363C98.6854 43.9276 98.7479 43.9189 98.8105 43.916C98.873 43.9102 98.9384 43.9102 99.0009 43.9102C99.0635 43.9102 99.1317 43.9102 99.1971 43.916C99.2625 43.9218 99.3279 43.9276 99.3933 43.9363C99.4018 44.0033 99.4103 44.0702 99.4189 44.1372C99.4274 44.2041 99.4302 44.2711 99.4302 44.338C99.4302 44.4049 99.4274 44.4719 99.4189 44.5388C99.4132 44.6058 99.4047 44.6727 99.3933 44.7396C99.3279 44.7484 99.2653 44.7571 99.2028 44.76C99.1403 44.7658 99.0749 44.7658 99.0123 44.7658C98.9498 44.7658 98.8815 44.7658 98.8161 44.76C98.7508 44.7542 98.6854 44.7484 98.62 44.7396V44.7367Z" fill="#005CB9"/>
<path d="M47.2372 49.9934C47.0581 49.9934 46.9074 49.8511 46.8932 49.6653C46.8818 49.4708 47.024 49.3053 47.2145 49.2908C47.4476 49.2763 70.6508 47.7203 79.9554 47.8945C89.2458 48.0657 93.1434 48.2138 93.1803 48.2167C93.3708 48.2254 93.5186 48.388 93.5101 48.5825C93.5016 48.777 93.3452 48.925 93.1519 48.9192C93.1149 48.9192 89.2231 48.7712 79.9412 48.597C70.6679 48.4257 47.4902 49.9759 47.2571 49.9905C47.2486 49.9905 47.2429 49.9905 47.2344 49.9905L47.2372 49.9934Z" fill="#38A8E0"/>
<path d="M97.4532 49.0272C97.4532 49.0272 97.4447 49.0272 97.439 49.0272L95.105 48.9285C94.9146 48.9198 94.7667 48.7572 94.7753 48.5627C94.7838 48.3682 94.9401 48.2172 95.1335 48.2259L97.4674 48.3247C97.6579 48.3334 97.8057 48.4959 97.7972 48.6904C97.7887 48.8791 97.638 49.0272 97.4532 49.0272Z" fill="#38A8E0"/>
<path d="M99.4002 49.1491C99.4002 49.1491 99.3831 49.1491 99.3746 49.1491L98.6895 49.0997C98.499 49.0852 98.3569 48.9168 98.3711 48.7252C98.3853 48.5307 98.553 48.3885 98.7378 48.4001L99.423 48.4494C99.6134 48.4639 99.7556 48.6323 99.7413 48.8239C99.7271 49.0097 99.5765 49.1491 99.3974 49.1491H99.4002Z" fill="#38A8E0"/>
<path d="M134.194 12.3281H133.628V38.0156H134.194V12.3281Z" fill="#005CB9"/>
<path d="M166.334 5.04102H166.047C166.01 5.04102 165.979 5.07302 165.979 5.11085V8.75084C165.979 8.87305 165.967 8.98944 165.942 9.09419C165.919 9.19602 165.882 9.28622 165.831 9.36188C165.782 9.43462 165.717 9.4899 165.64 9.53064C165.561 9.57137 165.461 9.59174 165.342 9.59174C165.222 9.59174 165.123 9.57137 165.046 9.53064C164.966 9.4899 164.904 9.43462 164.853 9.36188C164.801 9.28622 164.765 9.19602 164.742 9.09419C164.719 8.98653 164.708 8.87305 164.708 8.75084V5.11376C164.708 5.07593 164.676 5.04393 164.639 5.04393H164.332C164.295 5.04393 164.264 5.07593 164.264 5.11376V8.73921C164.264 8.91961 164.284 9.08546 164.324 9.23676C164.364 9.39097 164.426 9.52773 164.514 9.64411C164.6 9.76341 164.713 9.85652 164.85 9.92344C164.986 9.99036 165.151 10.0224 165.339 10.0224C165.526 10.0224 165.691 9.99036 165.825 9.92344C165.961 9.85652 166.075 9.76341 166.163 9.64411C166.249 9.52773 166.311 9.39097 166.348 9.23385C166.385 9.08255 166.405 8.9167 166.405 8.7363V5.11376C166.405 5.07593 166.374 5.04393 166.337 5.04393" fill="#183A6B"/>
<path d="M169.219 5.041H168.938C168.901 5.041 168.87 5.073 168.87 5.11083V8.75373L167.596 5.08464C167.587 5.05554 167.559 5.03809 167.531 5.03809H167.13C167.093 5.03809 167.062 5.07009 167.062 5.10792V9.90596C167.062 9.94379 167.093 9.9758 167.13 9.9758H167.411C167.448 9.9758 167.479 9.94379 167.479 9.90596V6.04483L168.813 9.93506C168.821 9.96416 168.847 9.98162 168.878 9.98162H169.219C169.256 9.98162 169.288 9.94961 169.288 9.91178V5.11374C169.288 5.07591 169.256 5.04391 169.219 5.04391" fill="#183A6B"/>
<path d="M171.491 5.09044C171.483 5.05843 171.457 5.03516 171.423 5.03516H170.974C170.943 5.03516 170.914 5.05843 170.906 5.09044L169.882 9.8943C169.876 9.91467 169.882 9.93795 169.896 9.9525C169.908 9.96996 169.928 9.97869 169.95 9.97869H170.232C170.263 9.97869 170.291 9.95541 170.297 9.9234L170.519 8.91666H171.869L172.091 9.9234C172.097 9.95541 172.125 9.97869 172.157 9.97869H172.464C172.483 9.97869 172.503 9.96996 172.518 9.9525C172.529 9.93504 172.535 9.91467 172.532 9.8943L171.488 5.09044H171.491ZM170.599 8.50348L171.19 5.78876L171.793 8.50348H170.599Z" fill="#183A6B"/>
<path d="M176.362 5.04102H174.514C174.477 5.04102 174.445 5.07302 174.445 5.11085V9.90889C174.445 9.94672 174.477 9.97873 174.514 9.97873H176.362C176.398 9.97873 176.43 9.94672 176.43 9.90889V9.62084C176.43 9.58301 176.401 9.551 176.362 9.551H174.889V7.68882H176.1C176.137 7.68882 176.168 7.65681 176.168 7.61898V7.33093C176.168 7.2931 176.137 7.26109 176.1 7.26109H174.889V5.46874H176.362C176.398 5.46874 176.43 5.43673 176.43 5.39891V5.11085C176.43 5.07302 176.401 5.04102 176.362 5.04102Z" fill="#183A6B"/>
<path d="M179.978 5.04102H179.537C179.506 5.04102 179.477 5.06429 179.469 5.0963L178.559 9.05054L177.641 5.0963C177.632 5.06429 177.606 5.04102 177.575 5.04102H177.132C177.095 5.04102 177.063 5.07302 177.063 5.11085V9.90889C177.063 9.94672 177.095 9.97873 177.132 9.97873H177.407C177.444 9.97873 177.476 9.94672 177.476 9.90889V6.25726L178.331 9.92053C178.34 9.95254 178.366 9.97582 178.397 9.97582H178.707C178.738 9.97582 178.766 9.95254 178.772 9.92053L179.617 6.25144V9.9118C179.617 9.94963 179.648 9.98164 179.685 9.98164H179.978C180.015 9.98164 180.046 9.94963 180.046 9.9118V5.11376C180.046 5.07593 180.015 5.04393 179.978 5.04393" fill="#183A6B"/>
<path d="M181.752 5.04102H180.783C180.746 5.04102 180.714 5.07302 180.714 5.11085V9.90889C180.714 9.94672 180.746 9.97873 180.783 9.97873H181.09C181.127 9.97873 181.158 9.94672 181.158 9.90889V8.00597H181.672C182.065 8.00597 182.36 7.90413 182.545 7.70336C182.73 7.5026 182.824 7.19999 182.824 6.79846V6.27763C182.824 5.91101 182.741 5.61422 182.579 5.39018C182.412 5.16031 182.133 5.04393 181.752 5.04393M182.38 6.81882C182.38 7.08942 182.324 7.28728 182.215 7.40367C182.107 7.52005 181.925 7.57825 181.672 7.57825H181.158V5.47165H181.752C181.994 5.47165 182.153 5.53857 182.241 5.67241C182.335 5.81499 182.38 6.01285 182.38 6.25726V6.81882Z" fill="#183A6B"/>
<path d="M185.57 9.62954C185.556 9.53062 185.55 9.43169 185.55 9.33276V8.58497C185.55 8.31437 185.493 8.08451 185.382 7.90411C185.3 7.77318 185.183 7.67134 185.027 7.60441C185.374 7.44438 185.55 7.11268 185.55 6.61222V6.19322C185.55 5.84115 185.465 5.55601 185.3 5.35233C185.129 5.14574 184.854 5.03809 184.475 5.03809H183.497C183.46 5.03809 183.429 5.07009 183.429 5.10792V9.90596C183.429 9.94379 183.46 9.9758 183.497 9.9758H183.804C183.841 9.9758 183.873 9.94379 183.873 9.90596V7.83137H184.293C184.421 7.83137 184.538 7.84301 184.64 7.86629C184.737 7.88956 184.822 7.92739 184.891 7.98267C184.959 8.03505 185.01 8.1107 185.047 8.20381C185.084 8.29983 185.104 8.42494 185.104 8.57624V9.32985C185.104 9.4666 185.112 9.58008 185.124 9.67319C185.138 9.76921 185.169 9.85941 185.212 9.94088C185.223 9.96416 185.246 9.9758 185.271 9.9758H185.593C185.618 9.9758 185.641 9.96125 185.652 9.93797C185.664 9.91469 185.664 9.88851 185.652 9.86523C185.61 9.79831 185.581 9.71684 185.57 9.62373M184.902 7.26398C184.837 7.31636 184.757 7.35418 184.66 7.37455C184.558 7.39492 184.438 7.40656 184.305 7.40656H183.878V5.46872H184.473C184.703 5.46872 184.868 5.53273 184.962 5.65785C185.058 5.78878 185.109 5.97791 185.109 6.22232V6.67332C185.109 6.82462 185.09 6.94974 185.053 7.04576C185.016 7.13887 184.967 7.21161 184.902 7.26398Z" fill="#183A6B"/>
<path d="M188.203 5.04102H186.355C186.318 5.04102 186.287 5.07302 186.287 5.11085V9.90889C186.287 9.94672 186.318 9.97873 186.355 9.97873H188.203C188.24 9.97873 188.271 9.94672 188.271 9.90889V9.62084C188.271 9.58301 188.24 9.551 188.203 9.551H186.73V7.68882H187.941C187.978 7.68882 188.01 7.65681 188.01 7.61898V7.33093C188.01 7.2931 187.978 7.26109 187.941 7.26109H186.73V5.46874H188.203C188.24 5.46874 188.271 5.43673 188.271 5.39891V5.11085C188.271 5.07302 188.24 5.04102 188.203 5.04102Z" fill="#183A6B"/>
<path d="M190.563 7.72345C190.435 7.60124 190.292 7.48486 190.147 7.38011C190.005 7.27827 189.869 7.17352 189.744 7.06296C189.621 6.9553 189.522 6.836 189.442 6.70507C189.366 6.57995 189.329 6.42283 189.329 6.24243C189.329 6.00093 189.377 5.80016 189.474 5.64595C189.567 5.50046 189.724 5.42772 189.954 5.42772C190.068 5.42772 190.165 5.44809 190.244 5.48882C190.324 5.52956 190.386 5.58484 190.437 5.65468C190.489 5.72742 190.526 5.8118 190.548 5.91073C190.571 6.01257 190.582 6.12604 190.582 6.24825V6.37045C190.582 6.40828 190.614 6.44029 190.651 6.44029H190.946C190.983 6.44029 191.015 6.40828 191.015 6.37045V6.26862C191.015 6.09113 190.995 5.92237 190.955 5.77106C190.915 5.61685 190.85 5.4801 190.764 5.36662C190.679 5.25023 190.565 5.16003 190.432 5.09602C190.298 5.03201 190.136 5 189.948 5C189.579 5.00582 189.306 5.12512 189.135 5.35789C188.968 5.58484 188.885 5.89036 188.885 6.2628C188.885 6.49848 188.928 6.70216 189.016 6.86801C189.101 7.03095 189.212 7.17934 189.346 7.30446C189.476 7.42666 189.616 7.54305 189.764 7.64489C189.906 7.74382 190.039 7.84857 190.165 7.95913C190.287 8.06679 190.386 8.18609 190.466 8.31702C190.54 8.44214 190.58 8.59635 190.58 8.77384C190.58 9.01534 190.528 9.21611 190.429 9.37032C190.335 9.51581 190.173 9.58855 189.937 9.58855C189.701 9.58855 189.539 9.51581 189.445 9.37032C189.346 9.21611 189.295 9.01534 189.295 8.77384V8.50615C189.295 8.46833 189.263 8.43632 189.226 8.43632H188.933C188.897 8.43632 188.865 8.46833 188.865 8.50615V8.75347C188.865 8.93387 188.885 9.09973 188.925 9.25103C188.965 9.40524 189.03 9.54199 189.118 9.65838C189.206 9.77477 189.32 9.86497 189.459 9.92898C189.596 9.99299 189.758 10.025 189.946 10.025C190.133 10.025 190.298 9.99299 190.432 9.92898C190.568 9.86497 190.682 9.77477 190.773 9.65838C190.861 9.5449 190.926 9.40815 190.966 9.25103C191.006 9.09973 191.026 8.93096 191.026 8.75347C191.026 8.52361 190.98 8.32284 190.892 8.15699C190.807 7.99405 190.696 7.84857 190.565 7.72345" fill="#183A6B"/>
<path d="M193.192 5.09044C193.187 5.05843 193.158 5.03516 193.127 5.03516H192.678C192.647 5.03516 192.618 5.05843 192.612 5.09044L191.589 9.8943C191.586 9.91467 191.589 9.93795 191.603 9.9525C191.614 9.96996 191.634 9.97869 191.657 9.97869H191.939C191.97 9.97869 191.998 9.95541 192.004 9.9234L192.226 8.91666H193.576L193.798 9.9234C193.806 9.95541 193.832 9.97869 193.863 9.97869H194.173C194.193 9.97869 194.213 9.96996 194.227 9.9525C194.241 9.93504 194.244 9.91467 194.241 9.8943L193.195 5.09044H193.192ZM192.3 8.50348L192.891 5.78876L193.494 8.50348H192.3Z" fill="#183A6B"/>
<path d="M198.088 5.39602C197.997 5.28254 197.878 5.19525 197.739 5.13415C197.599 5.07304 197.434 5.04395 197.247 5.04395H196.215C196.178 5.04395 196.146 5.07595 196.146 5.11378V9.91182C196.146 9.94965 196.178 9.98166 196.215 9.98166H197.247C197.434 9.98166 197.599 9.95256 197.739 9.89146C197.881 9.83035 197.997 9.74306 198.088 9.62959C198.179 9.51611 198.248 9.38226 198.287 9.22805C198.33 9.07675 198.35 8.90799 198.35 8.72177V6.30383C198.35 6.12052 198.327 5.94885 198.287 5.79755C198.245 5.64334 198.176 5.50658 198.088 5.39602ZM197.906 8.7305C197.906 8.98073 197.852 9.1815 197.747 9.3328C197.645 9.47828 197.48 9.55102 197.238 9.55102H196.59V5.47167H197.238C197.474 5.47167 197.642 5.5415 197.744 5.68989C197.852 5.84119 197.906 6.04487 197.906 6.29219V8.73341V8.7305Z" fill="#183A6B"/>
<path d="M200.908 5.47167C200.945 5.47167 200.977 5.43966 200.977 5.40183V5.11378C200.977 5.07595 200.945 5.04395 200.908 5.04395H199.06C199.023 5.04395 198.992 5.07595 198.992 5.11378V9.91182C198.992 9.94965 199.023 9.98166 199.06 9.98166H200.908C200.945 9.98166 200.977 9.94965 200.977 9.91182V9.62377C200.977 9.58594 200.945 9.55393 200.908 9.55393H199.436V7.69175H200.647C200.684 7.69175 200.715 7.65974 200.715 7.62191V7.33386C200.715 7.29603 200.684 7.26402 200.647 7.26402H199.436V5.47167H200.908Z" fill="#183A6B"/>
<path d="M166.244 20.405H168.137V21.7737H166.244V25.7225H164.774V16.1533H168.657V17.522H166.244V20.405Z" fill="#183A6B"/>
<path d="M170.767 16.1533V23.5355C170.767 23.8821 170.835 24.1238 170.974 24.2606C171.114 24.3975 171.298 24.4645 171.529 24.4645C171.759 24.4645 171.944 24.3946 172.083 24.2606C172.219 24.1238 172.29 23.8821 172.29 23.5355V16.1533H173.678V23.4394C173.678 24.214 173.493 24.8081 173.123 25.2216C172.754 25.6381 172.211 25.8448 171.489 25.8448C170.767 25.8448 170.224 25.6381 169.854 25.2216C169.485 24.8052 169.3 24.2111 169.3 23.4394V16.1533H170.767Z" fill="#183A6B"/>
<path d="M175.983 18.7917V25.7225H174.661V16.1533H176.503L178.013 21.8814V16.1533H179.318V25.7225H177.811L175.983 18.7917Z" fill="#183A6B"/>
<path d="M181.842 17.523V24.3577H182.67C182.9 24.3577 183.082 24.2907 183.215 24.1538C183.349 24.017 183.414 23.7753 183.414 23.4287V18.4519C183.414 18.1054 183.346 17.8637 183.215 17.7268C183.082 17.5899 182.9 17.523 182.67 17.523H181.842ZM180.373 16.1543H182.695C183.434 16.1543 183.983 16.3552 184.344 16.7571C184.705 17.159 184.884 17.7443 184.884 18.5189V23.3588C184.884 24.1335 184.705 24.7217 184.344 25.1207C183.983 25.5225 183.434 25.7206 182.695 25.7206H180.373V16.1514V16.1543Z" fill="#183A6B"/>
<path d="M187.204 22.6881H188.619L187.912 17.8482L187.204 22.6881ZM190.555 25.7225H189.074L188.821 23.9869H187.019L186.766 25.7225H185.418L186.911 16.1533H189.06L190.555 25.7225Z" fill="#183A6B"/>
<path d="M195.493 22.1555V23.4281C195.493 24.2027 195.308 24.7968 194.939 25.2103C194.569 25.6267 194.023 25.8335 193.304 25.8335C192.585 25.8335 192.039 25.6267 191.67 25.2103C191.3 24.7968 191.115 24.1998 191.115 23.4281V18.4513C191.115 17.6767 191.3 17.0826 191.67 16.6662C192.039 16.2526 192.582 16.043 193.304 16.043C194.026 16.043 194.569 16.2497 194.939 16.6662C195.308 17.0826 195.493 17.6767 195.493 18.4513V19.3802H194.106V18.3552C194.106 18.0086 194.038 17.7669 193.898 17.6242C193.759 17.4845 193.574 17.4117 193.344 17.4117C193.114 17.4117 192.929 17.4816 192.79 17.6242C192.65 17.7669 192.582 18.0116 192.582 18.3552V23.5242C192.582 23.8707 192.65 24.1124 192.79 24.2493C192.926 24.3862 193.111 24.4531 193.344 24.4531C193.577 24.4531 193.759 24.3832 193.898 24.2493C194.035 24.1124 194.106 23.8707 194.106 23.5242V22.1584H195.493V22.1555Z" fill="#183A6B"/>
<path d="M197.853 16.1562H196.386V25.7254H197.853V16.1562Z" fill="#183A6B"/>
<path d="M200.269 23.5244C200.269 23.8709 200.337 24.1126 200.477 24.2553C200.613 24.398 200.798 24.4679 201.031 24.4679C201.264 24.4679 201.446 24.398 201.585 24.2553C201.725 24.1155 201.793 23.8709 201.793 23.5244V18.3554C201.793 18.0088 201.725 17.7671 201.585 17.6244C201.446 17.4846 201.261 17.4118 201.031 17.4118C200.801 17.4118 200.616 17.4817 200.477 17.6244C200.337 17.7671 200.269 18.0088 200.269 18.3554V23.5244ZM202.606 14.1328L201.244 15.65H200.258L201.167 14.1328H202.609H202.606ZM198.802 18.4515C198.802 17.6768 198.993 17.0828 199.376 16.6693C199.757 16.2528 200.309 16.0461 201.031 16.0461C201.753 16.0461 202.302 16.2528 202.686 16.6693C203.069 17.0828 203.26 17.6798 203.26 18.4515V23.4283C203.26 24.2029 203.069 24.797 202.686 25.2134C202.305 25.6269 201.753 25.8337 201.031 25.8337C200.309 25.8337 199.757 25.6269 199.376 25.2134C198.993 24.797 198.802 24.2029 198.802 23.4283V18.4515Z" fill="#183A6B"/>
<path d="M205.514 18.7917V25.7225H204.192V16.1533H206.035L207.541 21.8814V16.1533H208.849V25.7225H207.342L205.514 18.7917Z" fill="#183A6B"/>
<path d="M167.091 32.5193H169.141V35.5447C169.141 36.3163 168.956 36.9104 168.589 37.3238C168.222 37.7373 167.677 37.9441 166.96 37.9441C166.244 37.9441 165.698 37.7373 165.331 37.3238C164.962 36.9104 164.78 36.3163 164.78 35.5447V30.5859C164.78 29.8142 164.965 29.2202 165.331 28.8067C165.698 28.3933 166.244 28.1865 166.96 28.1865C167.677 28.1865 168.222 28.3933 168.589 28.8067C168.956 29.2202 169.141 29.8113 169.141 30.5859V31.5118H167.756V30.4898C167.756 30.1433 167.688 29.9016 167.549 29.7618C167.412 29.6221 167.227 29.5493 166.997 29.5493C166.767 29.5493 166.582 29.6191 166.446 29.7618C166.309 29.9016 166.241 30.1462 166.241 30.4898V35.6408C166.241 35.9873 166.309 36.2261 166.446 36.3629C166.585 36.4998 166.767 36.5668 166.997 36.5668C167.227 36.5668 167.412 36.4998 167.549 36.3629C167.685 36.2261 167.756 35.9873 167.756 35.6408V33.8821H167.091V32.5193Z" fill="#183A6B"/>
<path d="M171.549 29.6567V32.586H172.12C172.396 32.586 172.609 32.5132 172.765 32.3676C172.919 32.222 172.998 31.96 172.998 31.5756V30.6351C172.998 30.2886 172.939 30.0411 172.819 29.8867C172.7 29.7324 172.509 29.6538 172.254 29.6538H171.549V29.6567ZM173.146 37.836C173.129 37.772 173.112 37.7137 173.092 37.6584C173.072 37.6031 173.058 37.5332 173.044 37.4546C173.03 37.373 173.021 37.2682 173.018 37.1401C173.013 37.012 173.013 36.8547 173.013 36.6625V35.163C173.013 34.7174 172.936 34.4059 172.785 34.2224C172.634 34.0419 172.39 33.9516 172.055 33.9516H171.549V37.836H170.084V28.2969H172.293C173.055 28.2969 173.607 28.4774 173.951 28.8414C174.292 29.2054 174.462 29.7557 174.462 30.4895V31.2378C174.462 32.2191 174.144 32.8655 173.504 33.1742C173.877 33.3285 174.133 33.5789 174.269 33.9313C174.406 34.2807 174.474 34.7058 174.474 35.2066V36.6771C174.474 36.913 174.482 37.1197 174.502 37.2973C174.519 37.4749 174.565 37.6555 174.636 37.836H173.146Z" fill="#183A6B"/>
<path d="M176.83 28.2939V35.655C176.83 36.0015 176.899 36.2403 177.038 36.3772C177.174 36.514 177.359 36.581 177.589 36.581C177.82 36.581 178.004 36.5111 178.141 36.3772C178.28 36.2403 178.348 36.0015 178.348 35.655V28.2939H179.733V35.559C179.733 36.3306 179.548 36.9246 179.181 37.3381C178.815 37.7516 178.269 37.9583 177.553 37.9583C176.836 37.9583 176.29 37.7516 175.924 37.3381C175.557 36.9246 175.372 36.3335 175.372 35.559V28.2939H176.836H176.83Z" fill="#183A6B"/>
<path d="M182.192 29.6567V32.8888H182.883C183.113 32.8888 183.289 32.8247 183.415 32.6966C183.54 32.5685 183.602 32.3326 183.602 31.9891V30.5593C183.602 30.2128 183.54 29.977 183.415 29.8518C183.289 29.7237 183.113 29.6596 182.883 29.6596H182.192V29.6567ZM182.886 28.2939C183.622 28.2939 184.171 28.4949 184.529 28.8938C184.887 29.2956 185.069 29.878 185.069 30.6525V31.893C185.069 32.6646 184.89 33.2528 184.529 33.6517C184.171 34.0535 183.622 34.2515 182.886 34.2515H182.195V37.836H180.731V28.2969H182.886V28.2939Z" fill="#183A6B"/>
<path d="M187.155 35.6408C187.155 35.9873 187.224 36.229 187.363 36.3688C187.499 36.5085 187.684 36.5813 187.914 36.5813C188.145 36.5813 188.33 36.5114 188.466 36.3688C188.602 36.229 188.673 35.9844 188.673 35.6408V30.4869C188.673 30.1404 188.605 29.8987 188.466 29.7589C188.33 29.6191 188.145 29.5463 187.914 29.5463C187.684 29.5463 187.499 29.6162 187.363 29.7589C187.224 29.8987 187.155 30.1433 187.155 30.4869V35.6408ZM185.691 30.5859C185.691 29.8142 185.882 29.2202 186.263 28.8067C186.644 28.3933 187.195 28.1865 187.912 28.1865C188.628 28.1865 189.18 28.3933 189.563 28.8067C189.944 29.2202 190.135 29.8142 190.135 30.5859V35.5476C190.135 36.3193 189.944 36.9133 189.563 37.3267C189.182 37.7402 188.631 37.947 187.912 37.947C187.192 37.947 186.644 37.7402 186.263 37.3267C185.882 36.9133 185.691 36.3193 185.691 35.5476V30.5859Z" fill="#183A6B"/>
<path d="M192.958 30.5859C192.958 29.8142 193.137 29.2202 193.498 28.8067C193.856 28.3933 194.396 28.1865 195.115 28.1865C195.835 28.1865 196.372 28.3933 196.733 28.8067C197.091 29.2202 197.27 29.8142 197.27 30.5859V30.8858H195.886V30.4898C195.886 30.1433 195.823 29.9016 195.692 29.7618C195.565 29.6221 195.383 29.5493 195.152 29.5493C194.922 29.5493 194.743 29.6191 194.612 29.7618C194.484 29.9016 194.419 30.1462 194.419 30.4898C194.419 30.8159 194.49 31.1042 194.632 31.3546C194.774 31.605 194.95 31.8409 195.164 32.0651C195.377 32.2864 195.604 32.5106 195.849 32.7319C196.093 32.9532 196.321 33.1978 196.534 33.4598C196.747 33.7248 196.923 34.0247 197.066 34.3596C197.208 34.6974 197.279 35.0905 197.279 35.5447C197.279 36.3163 197.094 36.9104 196.727 37.3238C196.358 37.7373 195.815 37.9441 195.095 37.9441C194.376 37.9441 193.833 37.7373 193.467 37.3238C193.097 36.9104 192.915 36.3163 192.915 35.5447V34.9594H194.299V35.6408C194.299 35.9873 194.368 36.2261 194.504 36.3629C194.641 36.4998 194.825 36.5668 195.056 36.5668C195.286 36.5668 195.471 36.4998 195.607 36.3629C195.744 36.2261 195.815 35.9873 195.815 35.6408C195.815 35.3147 195.744 35.0264 195.601 34.7731C195.459 34.5227 195.283 34.2868 195.07 34.0655C194.857 33.8442 194.629 33.62 194.385 33.3987C194.14 33.1745 193.913 32.9328 193.7 32.6707C193.486 32.4058 193.307 32.1058 193.168 31.771C193.026 31.4332 192.955 31.0401 192.955 30.5859" fill="#183A6B"/>
<path d="M199.465 35.6408C199.465 35.9873 199.533 36.229 199.673 36.3688C199.809 36.5085 199.994 36.5813 200.224 36.5813C200.454 36.5813 200.639 36.5114 200.776 36.3688C200.912 36.2261 200.983 35.9844 200.983 35.6408V30.4869C200.983 30.1404 200.915 29.8987 200.776 29.7589C200.636 29.6191 200.454 29.5463 200.224 29.5463C199.994 29.5463 199.809 29.6162 199.673 29.7589C199.533 29.8987 199.465 30.1433 199.465 30.4869V35.6408ZM198.001 30.5859C198.001 29.8142 198.191 29.2202 198.572 28.8067C198.953 28.3933 199.505 28.1865 200.221 28.1865C200.938 28.1865 201.489 28.3933 201.873 28.8067C202.254 29.2202 202.444 29.8142 202.444 30.5859V35.5476C202.444 36.3193 202.254 36.9133 201.873 37.3267C201.492 37.7402 200.94 37.947 200.221 37.947C199.502 37.947 198.953 37.7402 198.572 37.3267C198.191 36.9133 198.001 36.3193 198.001 35.5476V30.5859Z" fill="#183A6B"/>
<path d="M207.635 34.278V35.5447C207.635 36.3163 207.45 36.9103 207.083 37.3238C206.717 37.7373 206.171 37.944 205.454 37.944C204.738 37.944 204.192 37.7373 203.825 37.3238C203.459 36.9103 203.274 36.3163 203.274 35.5447V30.5829C203.274 29.8113 203.459 29.2173 203.825 28.8038C204.192 28.3903 204.738 28.1836 205.454 28.1836C206.171 28.1836 206.717 28.3903 207.083 28.8038C207.45 29.2173 207.635 29.8084 207.635 30.5829V31.5089H206.25V30.4868C206.25 30.1403 206.182 29.8987 206.043 29.7589C205.906 29.6191 205.722 29.5463 205.491 29.5463C205.261 29.5463 205.076 29.6162 204.94 29.7589C204.801 29.8987 204.732 30.1433 204.732 30.4868V35.6379C204.732 35.9844 204.801 36.2261 204.94 36.36C205.076 36.4969 205.261 36.5638 205.491 36.5638C205.722 36.5638 205.906 36.4969 206.043 36.36C206.179 36.2261 206.25 35.9844 206.25 35.6379V34.2751H207.635V34.278Z" fill="#183A6B"/>
<path d="M209.992 28.2939H208.528V37.8331H209.992V28.2939Z" fill="#183A6B"/>
<path d="M212.451 34.8106H213.861L213.156 29.9857L212.451 34.8106ZM215.791 37.836H214.313L214.06 36.1064H212.263L212.01 37.836H210.666L212.155 28.2969H214.296L215.785 37.836H215.791Z" fill="#183A6B"/>
<path d="M216.47 28.2939V37.836H220.342V36.4733H217.934V28.2939H216.47Z" fill="#183A6B"/>
<path d="M146.097 15.3935C145.847 15.3935 145.617 15.5304 145.489 15.7487L139.306 26.5236C139.175 26.7507 139.175 27.0331 139.306 27.2602L145.432 37.8575C145.56 38.0788 145.79 38.2127 146.04 38.2127H158.039C158.292 38.2127 158.525 38.0759 158.653 37.8488L162.919 30.2036C163.044 29.9794 163.044 29.7028 162.919 29.4816L156.921 18.8406C156.796 18.6164 156.56 18.4796 156.31 18.4796L147.828 18.4912C147.578 18.4912 147.348 18.628 147.22 18.8493L142.817 26.5294C142.686 26.7565 142.686 27.0389 142.817 27.266L147.154 34.7715C147.282 34.9927 147.513 35.1267 147.763 35.1267L156.293 35.1179C156.546 35.1179 156.779 34.9782 156.904 34.754L159.676 29.7756L158.422 27.6823L155.688 32.6782C155.563 32.9053 155.33 33.0421 155.077 33.0421H148.979C148.729 33.045 148.499 32.9111 148.371 32.6928L145.29 27.266C145.159 27.0389 145.159 26.7565 145.29 26.5265L148.445 20.9338C148.573 20.7126 148.803 20.5757 149.053 20.5757H155.102C155.355 20.5757 155.588 20.7126 155.713 20.9367L160.469 29.4845C160.594 29.7086 160.594 29.9823 160.469 30.2065L157.43 35.7934C157.305 36.0204 157.069 36.1602 156.816 36.1602H147.254C147.004 36.1602 146.773 36.0263 146.646 35.805L141.782 27.2689C141.651 27.0418 141.651 26.7594 141.782 26.5294L146.722 17.8012C146.85 17.5799 147.08 17.446 147.331 17.446H156.83C157.083 17.446 157.317 17.5829 157.442 17.807L161.876 25.8162L163.096 23.6297L158.667 15.7516C158.542 15.5274 158.309 15.3877 158.056 15.3877H146.103L146.097 15.3935Z" fill="url(#paint0_linear_2112_8748)"/>
</g>
</g>
<defs>
<linearGradient id="paint0_linear_2112_8748" x1="139.209" y1="26.8031" x2="163.09" y2="26.8031" gradientUnits="userSpaceOnUse">
<stop stop-color="#00BED6"/>
<stop offset="1" stop-color="#183A6B"/>
</linearGradient>
<clipPath id="clip0_2112_8748">
<rect width="220.25" height="50" fill="white"/>
</clipPath>
<clipPath id="clip1_2112_8748">
<rect width="220" height="50" fill="white" transform="translate(0.125)"/>
</clipPath>
</defs>
</svg>
