<svg width="800" height="800" viewBox="0 0 800 800" fill="none" xmlns="http://www.w3.org/2000/svg">
<mask id="mask0_1295_50449" style="mask-type:alpha" maskUnits="userSpaceOnUse" x="0" y="0" width="800" height="800">
<circle cx="400" cy="400" r="400" fill="#D9D9D9"/>
</mask>
<g mask="url(#mask0_1295_50449)">
<path d="M-0.0488281 400.003C-0.0488281 620.917 179.042 800 399.953 800C620.867 800 799.958 620.917 799.958 400.003C799.958 179.084 620.867 -0.00297745 399.953 -0.00297745C179.042 -0.00297745 -0.0488281 179.084 -0.0488281 400.003Z" fill="url(#paint0_radial_1295_50449)"/>
<path d="M333.457 359.931C336.891 340.714 323.85 325.273 304.975 325.273H261.056C241.834 325.273 223.992 340.714 220.562 359.931L206.834 436.796C203.404 456.013 216.103 471.455 235.316 471.455H279.239C298.111 471.455 316.299 456.013 319.733 436.796L333.457 359.931ZM276.151 490.668H232.228C219.191 490.668 207.522 485.867 199.628 477.973L185.216 560.327C184.187 565.474 179.04 569.938 173.893 569.938C168.745 569.938 164.974 565.474 166.003 560.327L201.345 359.931C206.492 330.078 234.628 306.056 264.486 306.056H308.751C323.163 306.056 335.516 311.89 343.751 321.843C351.987 332.137 355.075 345.52 352.674 359.931L338.95 436.796C333.799 466.649 305.663 490.668 276.151 490.668Z" fill="white"/>
<path d="M354.741 490.68C349.594 490.68 346.164 486.562 346.851 481.415C347.877 476.268 352.682 472.15 357.829 472.15H444.646C463.172 472.15 481.018 457.392 484.106 438.867C487.194 420.679 474.845 405.579 456.312 405.579H408.271C380.822 405.579 362.289 383.278 367.094 355.825C371.899 328.373 398.318 306.067 425.771 306.067H506.412C511.559 306.067 514.647 309.843 513.963 314.99C512.93 320.137 508.47 324.255 503.323 324.255H422.683C405.182 324.255 388.37 338.325 385.282 355.825C382.193 372.98 394.205 387.392 411.705 387.392H459.746C473.47 387.392 485.481 392.539 493.713 402.491C501.952 412.102 504.695 425.138 502.294 438.867C497.147 467.349 470.04 490.68 441.558 490.68H354.741Z" fill="white"/>
<path d="M590.486 324.255C570.582 324.255 551.714 340.384 548.28 359.943L542.787 390.138H659.462L664.951 359.943C668.385 340.384 654.998 324.255 635.097 324.255H590.486ZM561.321 490.68C531.468 490.68 511.221 466.315 516.368 436.462L530.092 359.943C535.239 330.09 563.721 306.067 593.579 306.067H638.186C668.043 306.067 688.286 330.09 683.138 359.943L675.932 399.407C675.245 404.55 670.44 408.668 665.296 408.668H539.703L534.556 436.462C531.122 456.025 544.504 472.154 564.409 472.154H651.226C656.028 472.154 659.462 476.268 658.428 481.415C657.745 486.566 652.943 490.338 648.138 490.338L561.321 490.68Z" fill="white"/>
<path d="M-16.7916 348.274H46.7966L78.5988 388.962H-58.709V401.169H117.676L95.273 445.926H51.1502V458.133H102.198L131.628 401.169H180.255L182.717 388.962H96.7744L53.6038 336.067H-18.5941L-16.7916 348.274Z" fill="#FDBB2F"/>
<path d="M23.1642 285.072C23.1642 295.301 14.8718 303.594 4.64271 303.594C-5.59048 303.594 -13.8828 295.301 -13.8828 285.072C-13.8828 274.843 -5.59048 266.551 4.64271 266.551C14.8718 266.551 23.1642 274.843 23.1642 285.072Z" fill="#FDBB2F"/>
<path d="M19.4608 507.236C19.4608 515.418 12.8245 522.055 4.64203 522.055C-3.54045 522.055 -10.1768 515.418 -10.1768 507.236C-10.1768 499.053 -3.54045 492.417 4.64203 492.417C12.8245 492.417 19.4608 499.053 19.4608 507.236Z" fill="#FDBB2F"/>
<path d="M59.7569 230.174C59.7569 240.403 51.4646 248.695 41.2355 248.695C31.0023 248.695 22.71 240.403 22.71 230.174C22.71 219.945 31.0023 211.652 41.2355 211.652C51.4646 211.652 59.7569 219.945 59.7569 230.174Z" fill="#FDBB2F"/>
<path d="M59.7569 454.955C59.7569 465.184 51.4646 473.477 41.2355 473.477C31.0023 473.477 22.71 465.184 22.71 454.955C22.71 444.726 31.0023 436.434 41.2355 436.434C51.4646 436.434 59.7569 444.726 59.7569 454.955Z" fill="#FDBB2F"/>
<path d="M59.7569 564.705C59.7569 574.934 51.4646 583.227 41.2355 583.227C31.0023 583.227 22.71 574.934 22.71 564.705C22.71 554.476 31.0023 546.184 41.2355 546.184C51.4646 546.184 59.7569 554.476 59.7569 564.705Z" fill="#FDBB2F"/>
<path d="M96.3507 285.072C96.3507 295.301 88.0583 303.594 77.8292 303.594C67.596 303.594 59.3037 295.301 59.3037 285.072C59.3037 274.843 67.596 266.551 77.8292 266.551C88.0583 266.551 96.3507 274.843 96.3507 285.072Z" fill="#FDBB2F"/>
<path d="M96.3507 507.221C96.3507 517.45 88.0583 525.742 77.8292 525.742C67.596 525.742 59.3037 517.45 59.3037 507.221C59.3037 496.992 67.596 488.699 77.8292 488.699C88.0583 488.699 96.3507 496.992 96.3507 507.221Z" fill="#FDBB2F"/>
<path d="M230.458 268.509C226.585 268.509 222.91 271.646 222.174 275.524C221.507 279.332 224.111 282.469 227.988 282.469H242.949L245.423 268.509H230.458ZM227.386 286.078C221.572 286.078 217.633 281.334 218.634 275.524C219.7 269.709 225.246 264.969 231.06 264.969H246.026L246.823 260.627C247.494 256.815 244.886 253.678 241.078 253.678H226.385C225.449 253.678 224.778 252.876 224.981 251.875C225.116 250.874 226.052 250.138 226.983 250.138H241.68C247.494 250.138 251.368 254.813 250.367 260.627L246.156 284.276C246.026 285.277 245.155 286.078 244.154 286.078H227.386Z" fill="white"/>
<path d="M277.894 284.354C277.694 285.355 276.759 286.156 275.758 286.156L259.657 286.091C256.919 286.091 254.38 284.952 252.842 283.015C251.174 281.013 250.571 278.34 251.039 275.602L253.712 260.706C254.18 257.967 255.714 255.294 258.054 253.288C260.324 251.351 263.197 250.216 265.939 250.216H282.105C283.106 250.216 283.773 250.952 283.639 251.953C283.44 252.954 282.504 253.756 281.503 253.756H265.467C261.594 253.756 257.92 256.897 257.252 260.706L254.579 275.602C253.912 279.41 256.516 282.551 260.394 282.551H276.425C277.426 282.551 278.093 283.349 277.894 284.354Z" fill="white"/>
<path d="M314.582 260.627L310.375 284.211C310.241 285.211 309.305 286.078 308.235 286.078C307.234 286.078 306.497 285.211 306.632 284.211L310.843 260.627C311.51 256.888 308.971 253.881 305.297 253.881H296.744C293.005 253.881 289.53 256.888 288.863 260.627L284.656 284.211C284.521 285.211 283.516 286.078 282.515 286.078C281.514 286.078 280.778 285.211 280.912 284.211L289.331 236.576C289.53 235.575 290.531 234.705 291.532 234.705C292.537 234.705 293.273 235.575 293.07 236.576L290.267 252.612C292.338 251.074 294.877 250.138 297.412 250.138H305.964C311.71 250.138 315.583 254.813 314.582 260.627Z" fill="white"/>
</g>
<defs>
<radialGradient id="paint0_radial_1295_50449" cx="0" cy="0" r="1" gradientUnits="userSpaceOnUse" gradientTransform="translate(395.79 257.663) rotate(91.1233) scale(539.635 539.635)">
<stop stop-color="#3C63AD"/>
<stop offset="0.00369665" stop-color="#3C63AD"/>
<stop offset="0.12203" stop-color="#3C63AD"/>
<stop offset="1" stop-color="#2B3E56"/>
</radialGradient>
</defs>
</svg>
