<svg width="201" height="38" viewBox="0 0 201 38" fill="none" xmlns="http://www.w3.org/2000/svg">
<path d="M67.5623 17.383H71.6977V26.7632C70.4873 27.727 69.0752 28.4667 67.4614 28.9822C65.8477 29.4977 64.189 29.7555 62.4856 29.7555C60.0873 29.7555 57.9244 29.24 55.9968 28.2089C54.0692 27.1555 52.5562 25.7098 51.458 23.8718C50.3597 22.0339 49.8105 19.9606 49.8105 17.652C49.8105 15.3434 50.3597 13.2701 51.458 11.4322C52.5562 9.59422 54.0692 8.15973 55.9968 7.1287C57.9468 6.07525 60.1321 5.54852 62.5528 5.54852C64.5252 5.54852 66.3183 5.87352 67.9321 6.52352C69.5459 7.17352 70.902 8.12611 72.0002 9.38129L69.2433 12.0709C67.4502 10.2778 65.2873 9.38129 62.7545 9.38129C61.0959 9.38129 59.6166 9.7287 58.3166 10.4235C57.039 11.1184 56.0304 12.0934 55.2907 13.3485C54.5735 14.6037 54.2149 16.0382 54.2149 17.652C54.2149 19.221 54.5735 20.633 55.2907 21.8882C56.0304 23.1434 57.039 24.1296 58.3166 24.8468C59.6166 25.5641 61.0847 25.9227 62.7209 25.9227C64.5589 25.9227 66.1727 25.5193 67.5623 24.7124V17.383Z" fill="#2746C7"/>
<path d="M77.0589 4.47266H81.2615V29.4193H77.0589V4.47266Z" fill="#2746C7"/>
<path d="M94.8463 29.6546C93.0308 29.6546 91.3946 29.2624 89.9377 28.4779C88.4808 27.6934 87.3377 26.6063 86.5084 25.2167C85.7015 23.8046 85.298 22.2132 85.298 20.4425C85.298 18.6718 85.7015 17.0917 86.5084 15.702C87.3377 14.3123 88.4808 13.2253 89.9377 12.4408C91.3946 11.6563 93.0308 11.2641 94.8463 11.2641C96.6843 11.2641 98.3317 11.6563 99.7886 12.4408C101.245 13.2253 102.377 14.3123 103.184 15.702C104.014 17.0917 104.428 18.6718 104.428 20.4425C104.428 22.2132 104.014 23.8046 103.184 25.2167C102.377 26.6063 101.245 27.6934 99.7886 28.4779C98.3317 29.2624 96.6843 29.6546 94.8463 29.6546ZM94.8463 26.0572C96.3929 26.0572 97.6705 25.5417 98.6791 24.5106C99.6877 23.4796 100.192 22.1236 100.192 20.4425C100.192 18.7615 99.6877 17.4054 98.6791 16.3744C97.6705 15.3434 96.3929 14.8279 94.8463 14.8279C93.2998 14.8279 92.0222 15.3434 91.0136 16.3744C90.0274 17.4054 89.5343 18.7615 89.5343 20.4425C89.5343 22.1236 90.0274 23.4796 91.0136 24.5106C92.0222 25.5417 93.2998 26.0572 94.8463 26.0572Z" fill="#2746C7"/>
<path d="M118.399 11.2641C120.147 11.2641 121.705 11.6451 123.072 12.4072C124.462 13.1692 125.549 14.2451 126.333 15.6347C127.118 17.0244 127.51 18.627 127.51 20.4425C127.51 22.258 127.118 23.8718 126.333 25.2839C125.549 26.6736 124.462 27.7494 123.072 28.5115C121.705 29.2736 120.147 29.6546 118.399 29.6546C117.166 29.6546 116.034 29.4417 115.003 29.0158C113.994 28.59 113.143 27.9512 112.448 27.0994V29.4193H108.447V4.47266H112.65V13.6511C113.367 12.8666 114.207 12.2727 115.171 11.8692C116.157 11.4658 117.233 11.2641 118.399 11.2641ZM117.928 26.0572C119.475 26.0572 120.741 25.5417 121.727 24.5106C122.736 23.4796 123.24 22.1236 123.24 20.4425C123.24 18.7615 122.736 17.4054 121.727 16.3744C120.741 15.3434 119.475 14.8279 117.928 14.8279C116.919 14.8279 116.012 15.0632 115.205 15.5339C114.398 15.9822 113.759 16.6322 113.288 17.4839C112.818 18.3356 112.582 19.3218 112.582 20.4425C112.582 21.5632 112.818 22.5494 113.288 23.4011C113.759 24.2529 114.398 24.9141 115.205 25.3848C116.012 25.833 116.919 26.0572 117.928 26.0572Z" fill="#2746C7"/>
<path d="M138.124 11.2641C140.769 11.2641 142.786 11.9028 144.176 13.1804C145.588 14.4356 146.294 16.3408 146.294 18.896V29.4193H142.327V27.2339C141.811 28.0184 141.072 28.6236 140.108 29.0494C139.167 29.4529 138.024 29.6546 136.679 29.6546C135.334 29.6546 134.157 29.4305 133.149 28.9822C132.14 28.5115 131.355 27.8727 130.795 27.0658C130.257 26.2365 129.988 25.3063 129.988 24.2753C129.988 22.6615 130.582 21.3727 131.77 20.4089C132.98 19.4227 134.874 18.9296 137.452 18.9296H142.092V18.6606C142.092 17.4054 141.711 16.4416 140.949 15.7692C140.209 15.0968 139.099 14.7606 137.62 14.7606C136.611 14.7606 135.614 14.9175 134.628 15.2313C133.664 15.5451 132.846 15.9822 132.174 16.5425L130.526 13.483C131.467 12.7658 132.599 12.2166 133.922 11.8356C135.244 11.4546 136.645 11.2641 138.124 11.2641ZM137.553 26.5951C138.606 26.5951 139.536 26.3598 140.343 25.8891C141.173 25.396 141.755 24.7011 142.092 23.8046V21.7201H137.755C135.334 21.7201 134.124 22.5158 134.124 24.1072C134.124 24.8693 134.426 25.4744 135.031 25.9227C135.636 26.371 136.477 26.5951 137.553 26.5951Z" fill="#2746C7"/>
<path d="M151.688 4.47266H155.89V29.4193H151.688V4.47266Z" fill="#2746C7"/>
<path d="M170.82 14.8951C172.367 14.8951 173.756 15.1977 174.989 15.8029C176.222 16.3856 177.186 17.2261 177.88 18.3244C178.575 19.4227 178.923 20.6891 178.923 22.1236C178.923 23.6477 178.542 24.9925 177.78 26.158C177.018 27.3012 175.986 28.1865 174.686 28.8141C173.386 29.4417 171.93 29.7555 170.316 29.7555C167.088 29.7555 164.578 28.7468 162.785 26.7296C161.014 24.7124 160.129 21.821 160.129 18.0554C160.129 15.4106 160.611 13.158 161.574 11.2977C162.538 9.41491 163.883 7.99163 165.609 7.02784C167.357 6.04163 169.374 5.54852 171.661 5.54852C172.871 5.54852 174.003 5.683 175.056 5.95197C176.132 6.19852 177.062 6.56835 177.847 7.06146L176.233 10.3563C175.067 9.59422 173.577 9.21318 171.761 9.21318C169.498 9.21318 167.727 9.90801 166.449 11.2977C165.172 12.6873 164.533 14.6934 164.533 17.3158V17.3494C165.228 16.5425 166.113 15.9373 167.189 15.5339C168.265 15.108 169.475 14.8951 170.82 14.8951ZM170.08 26.3262C171.448 26.3262 172.557 25.9675 173.409 25.2503C174.261 24.5106 174.686 23.5356 174.686 22.3253C174.686 21.0925 174.261 20.1175 173.409 19.4003C172.557 18.683 171.414 18.3244 169.98 18.3244C168.567 18.3244 167.413 18.7054 166.517 19.4675C165.642 20.2296 165.205 21.1934 165.205 22.3589C165.205 23.502 165.631 24.4546 166.483 25.2167C167.357 25.9563 168.556 26.3262 170.08 26.3262Z" fill="#2746C7"/>
<path d="M191.899 14.8951C193.445 14.8951 194.835 15.1977 196.068 15.8029C197.3 16.3856 198.264 17.2261 198.959 18.3244C199.654 19.4227 200.001 20.6891 200.001 22.1236C200.001 23.6477 199.62 24.9925 198.858 26.158C198.096 27.3012 197.065 28.1865 195.765 28.8141C194.465 29.4417 193.008 29.7555 191.394 29.7555C188.167 29.7555 185.656 28.7468 183.863 26.7296C182.093 24.7124 181.207 21.821 181.207 18.0554C181.207 15.4106 181.689 13.158 182.653 11.2977C183.617 9.41491 184.962 7.99163 186.687 7.02784C188.436 6.04163 190.453 5.54852 192.739 5.54852C193.95 5.54852 195.081 5.683 196.135 5.95197C197.211 6.19852 198.141 6.56835 198.925 7.06146L197.312 10.3563C196.146 9.59422 194.656 9.21318 192.84 9.21318C190.576 9.21318 188.806 9.90801 187.528 11.2977C186.25 12.6873 185.612 14.6934 185.612 17.3158V17.3494C186.306 16.5425 187.192 15.9373 188.268 15.5339C189.344 15.108 190.554 14.8951 191.899 14.8951ZM191.159 26.3262C192.526 26.3262 193.636 25.9675 194.488 25.2503C195.339 24.5106 195.765 23.5356 195.765 22.3253C195.765 21.0925 195.339 20.1175 194.488 19.4003C193.636 18.683 192.493 18.3244 191.058 18.3244C189.646 18.3244 188.492 18.7054 187.595 19.4675C186.721 20.2296 186.284 21.1934 186.284 22.3589C186.284 23.502 186.71 24.4546 187.562 25.2167C188.436 25.9563 189.635 26.3262 191.159 26.3262Z" fill="#2746C7"/>
<circle cx="18.9117" cy="18.9117" r="18.9117" fill="#2746C7"/>
<path d="M32.0954 18.5619C31.878 16.0476 29.751 14.0732 27.1557 14.0732C25.4835 14.0732 24.0053 14.8947 23.109 16.1503C22.5805 16.8923 22.2494 17.7801 22.2026 18.7508C22.1993 18.827 22.1959 18.9065 22.1959 18.9827C22.1959 20.702 20.7913 22.0934 19.0589 22.0934C19.0555 22.0934 19.0555 22.0934 19.0555 22.0934H19.0522C17.3231 22.0934 15.9151 20.702 15.9151 18.9827C15.9151 18.9065 15.9118 18.827 15.9084 18.7508C15.8649 17.7801 15.5338 16.8923 15.0021 16.1503C14.1158 14.8947 12.6376 14.0732 10.9654 14.0732C8.3701 14.0732 6.24305 16.0476 6.02566 18.5619C6.02566 18.5619 6.00894 18.764 6.01228 18.8137C6.04573 19.2808 6.43368 19.6552 6.91528 19.6552C7.42028 19.6552 7.80824 19.2444 7.82496 18.7541C7.88516 17.9491 8.25639 17.2302 8.81825 16.7134C9.38346 16.1966 10.136 15.8786 10.962 15.8786C12.6142 15.8786 13.9687 17.1474 14.0891 18.7541L14.1024 19.0059C14.1058 20.056 14.4402 21.0233 15.0088 21.8184C15.9051 23.0739 17.3867 23.8955 19.0555 23.8955C19.0589 23.8955 19.0589 23.8955 19.0589 23.8955H19.0622C20.7311 23.8955 22.2127 23.0739 23.109 21.8184C23.6775 21.0233 24.012 20.056 24.0153 19.0059L24.0287 18.7541C24.1491 17.1441 25.5036 15.8786 27.1557 15.8786C27.9818 15.8786 28.7376 16.1966 29.2995 16.7134C29.8613 17.2302 30.2326 17.9491 30.2928 18.7541C30.3128 19.2444 30.7008 19.6552 31.2025 19.6552C31.6841 19.6552 32.072 19.2841 32.1054 18.8137C32.1121 18.764 32.0954 18.5619 32.0954 18.5619Z" fill="white" stroke="white" stroke-width="0.5"/>
</svg>
